<?xml version="1.0" encoding="UTF-8"?>
<!DOCTYPE svg PUBLIC "-//W3C//DTD SVG 1.1//EN" "http://www.w3.org/Graphics/SVG/1.1/DTD/svg11.dtd">
<svg version="1.1" xmlns="http://www.w3.org/2000/svg" xmlns:xlink="http://www.w3.org/1999/xlink" x="0" y="0" width="60" height="60" viewBox="0, 0, 60, 60">
  <defs>
    <linearGradient id="Gradient_1" gradientUnits="userSpaceOnUse" x1="31.914" y1="10.005" x2="31.914" y2="50.858">
      <stop offset="0" stop-color="#FFFFFF"/>
      <stop offset="1" stop-color="#A9A9A9"/>
    </linearGradient>
  </defs>
  <g id="feature_pencil.svg" transform="translate(0, 0)">
    <path d="M34.83,16.798 C34.83,16.798 42.691,22.303 42.691,22.303 C42.691,22.303 26.173,45.894 26.173,45.894 C26.173,45.894 26.174,45.895 26.174,45.895 C26.174,45.895 26.171,45.897 26.171,45.897 C26.171,45.897 26.171,45.897 26.171,45.897 C26.171,45.897 26.17,45.897 26.17,45.897 C26.17,45.897 16.838,50.858 16.838,50.858 C16.838,50.858 18.309,40.392 18.309,40.392 L18.308,40.392 C18.308,40.392 18.309,40.392 18.309,40.392 L18.309,40.388 C18.309,40.388 18.312,40.388 18.312,40.388 C18.312,40.388 34.83,16.798 34.83,16.798 z M35.456,20.247 C35.456,20.247 21.801,39.747 21.801,39.747 C21.801,39.747 23.097,40.655 23.097,40.655 C23.097,40.655 36.751,21.153 36.751,21.153 C36.751,21.153 35.456,20.247 35.456,20.247 z M44.72,11.048 C48.317,13.57 46.563,17.027 46.563,17.027 C46.264,17.593 44.674,19.724 44.674,19.724 L36.583,14.059 C36.583,14.059 38.038,11.835 38.472,11.362 C38.472,11.362 41.129,8.531 44.72,11.048 z" fill="url(#Gradient_1)"/>
  </g>
</svg>
