<svg xmlns="http://www.w3.org/2000/svg" viewBox="0 0 120 120"><defs><style>.cls-1{fill:#3c3c50;}</style></defs><title>Artboard 46</title><g id="Layer_12" data-name="Layer 12"><path class="cls-1" d="M54.23,92.38c0,3.74-1.88,6.16-4.81,6.16s-4.9-2.5-4.9-6.16,2-6.15,4.9-6.15S54.23,88.66,54.23,92.38Zm12.91-37.8v.14H87.45v-30h-.07C78.29,37.29,72.07,46.59,67.14,54.58Zm-27-12.74c-7,0-12.54,5.26-12.54,12A12.5,12.5,0,0,0,40.11,66.62a12.33,12.33,0,0,0,12.4-12.48A12,12,0,0,0,40.14,41.84ZM120,20v80a20,20,0,0,1-20,20H20A20,20,0,0,1,0,100V20A20,20,0,0,1,20,0h80A20,20,0,0,1,120,20ZM56.23,92.38c0-4.74-2.61-7.86-6.43-7.86a5.51,5.51,0,0,0-5.22,3.42h0V78.86H42.59V100h1.86V96.78h0a5.58,5.58,0,0,0,5.29,3.47C53.62,100.25,56.23,97.13,56.23,92.38Zm1-38.38A15.94,15.94,0,0,0,40.89,37.7c-6.66,0-12.51,3.83-14.52,9.37h-.11c0-14.63,5.17-23,14.19-23,5.5,0,10,3.35,11.21,8.37h4.72c-1.4-7.55-7.69-12.51-15.9-12.51-11.69,0-18.73,10-18.73,26.49q0,9.28,3.32,15.08a16.32,16.32,0,0,0,15.07,9.33C50,70.79,57.27,63.68,57.27,54Zm6.61,30.77H62V100h1.93Zm.34-4.37a1.3,1.3,0,1,0-1.3,1.29A1.28,1.28,0,0,0,64.22,80.4Zm12,17.94c-.12,0-.85.06-1,.06-1.41,0-2-.67-2-2.24V86.38h3V84.77h-3V81H71.19v3.81H68.92v1.61h2.27v9.87c0,2.75,1,3.84,3.58,3.84A12.74,12.74,0,0,0,76.2,100ZM99.34,54.72H92V20.61H85.16c-10.91,15.28-17.37,25-22.73,34v4.28h25V70H92V58.86h7.35Z"/></g></svg>