<svg xmlns="http://www.w3.org/2000/svg" viewBox="0 0 120 120"><defs><style>.cls-1{fill:#3c3c50;}</style></defs><g id="Layer_16" data-name="Layer 16"><path class="cls-1" d="M97,26a3,3,0,0,1-3-3V0H32.81A2.81,2.81,0,0,0,30,2.81V56H54.66L65.29,66.63h0a4.27,4.27,0,0,0,2.75-4c0-2.9-2.17-4.66-5.75-4.66H58.38V53.22h3.84c3,0,5.08-1.8,5.08-4.42s-1.83-4.26-5.12-4.26c-3.08,0-5.12,1.83-5.3,4.59h-6.1c.24-5.86,4.81-9.69,11.68-9.69,6.6,0,11.1,3.39,11.1,8.46,0,3.89-2.66,6.71-6.55,7.41v.13c4.73.4,7.78,3.25,7.78,7.65A8.68,8.68,0,0,1,69.63,71h0l.37.37V112h47.19a2.81,2.81,0,0,0,2.81-2.81V26Zm2.77,45.85h-7l-4.48-8.17h-.14l-4.41,8.17H77l7.39-11.73L77.08,48.3H84.3l4.25,8h.13l4.17-8h7L92.48,59.94ZM56,73a3,3,0,0,1-3-3V60H24a3,3,0,0,0-3,3V76.38L22.66,78,34,89.34v1.79l3.12-3c1.72-1.71,2.24-2.56,2.24-3.74a2.44,2.44,0,0,0-2.68-2.27,2.7,2.7,0,0,0-2.85,2.71v.06H30.55v-.06c0-3.2,2.56-5.46,6.25-5.46s6,2.06,6,4.88c0,2.11-1.41,3.7-3.27,5.55l-4.13,4v.07H43v2.81H34V116H63a3,3,0,0,0,3-3V73Zm.41,23.64H52.7l-2.39-4.36h-.07l-2.36,4.36H44.29l3.93-6.26-3.91-6.3h3.85l2.27,4.24h.07l2.22-4.24h3.73l-3.93,6.21ZM23,91a2,2,0,0,1-2-2V82H2a2,2,0,0,0-2,2v34a2,2,0,0,0,2,2H28a2,2,0,0,0,2-2V91ZM12.33,107.34H9.7V97.09h0L6.41,99.33V96.94l3.28-2.28h2.64Zm11.23,0H20.77L19,104.07h-.05l-1.77,3.27h-2.7l3-4.69-2.94-4.73h2.89l1.7,3.18h.05l1.67-3.18h2.8l-2.95,4.66Z"/></g></svg>