<svg xmlns="http://www.w3.org/2000/svg" viewBox="0 0 120 120"><defs><style>.cls-1{fill:#fff;}.cls-2{fill:#3c3c50;}</style></defs><title>Artboard 2</title><g id="Layer_1" data-name="Layer 1"><path class="cls-1" d="M76,85a9,9,0,0,1,14.56-7.07c12.27-16.82,13.25-37.76,1.26-49.75s-32.93-11-49.75,1.26A9,9,0,0,1,29.44,42.07C17.17,58.89,16.2,79.83,28.18,91.82s32.93,11,49.75-1.26A9,9,0,0,1,76,85Z"/><path class="cls-2" d="M35,45a10,10,0,1,0-7.07-2.93A9.93,9.93,0,0,0,35,45ZM30.76,30.76a6,6,0,1,1,0,8.48A6,6,0,0,1,30.76,30.76ZM120,58v4H62v58H58V62H0V58H58V0h4V58ZM85,75a10,10,0,1,0,7.07,2.93A9.93,9.93,0,0,0,85,75Zm4.24,14.24a6,6,0,1,1,0-8.48A6,6,0,0,1,89.24,89.24Z"/></g></svg>