<svg xmlns="http://www.w3.org/2000/svg" viewBox="0 0 120 120"><defs><style>.cls-1{fill:#3c3c50;}</style></defs><title>Artboard 59</title><g id="Layer_17" data-name="Layer 17"><path class="cls-1" d="M32,0A32,32,0,0,0,12.77,57.57a36,36,0,0,1,38.46,0A32,32,0,0,0,32,0Zm.34,42.94c-6.33,0-10.27-4-10.27-10.95s4-10.93,10.27-10.93c5.34,0,9.4,3.45,9.56,8.44H36.73a4.33,4.33,0,0,0-4.39-4.13c-2.93,0-4.79,2.51-4.79,6.61s1.84,6.65,4.8,6.65a4.32,4.32,0,0,0,4.41-4h5.17C41.68,39.62,37.79,42.94,32.34,42.94ZM88,0A31.93,31.93,0,0,0,62.43,12.77a36,36,0,0,1,0,38.46A32,32,0,1,0,88,0ZM99.6,42.57H94.87V29.37h-.1l-5.23,13H86.46l-5.21-13h-.12v13.2H76.4V21.43h6.21L87.94,35h.12l5.33-13.58H99.6Zm-42,26.2a32,32,0,1,0,0,38.46,36,36,0,0,1,0-38.46ZM34.69,91.3v7.27H29.31V91.3L22,77.43H27.8L32,86.22h.1l4.19-8.79H42Zm72.54-28.87a36,36,0,0,1-38.46,0,32,32,0,1,0,38.46,0ZM91.13,98.57l-5.39-8.26-1.8,2.28v6H78.56V77.43h5.38v9.29h.11l7.19-9.29H97l-7.37,9.39,7.79,11.75Z"/></g></svg>