<svg xmlns="http://www.w3.org/2000/svg" viewBox="0 0 120 120"><defs><style>.cls-1{fill:none;}.cls-2{fill:#3c3c50;}</style></defs><title>Artboard 3 copy</title><g id="Layer_2" data-name="Layer 2"><rect class="cls-1" width="120" height="120"/><path class="cls-2" d="M89,47a8,8,0,0,0-4,1.07V48a8,8,0,0,0-8-8,7.93,7.93,0,0,0-4.57,1.44,8.43,8.43,0,0,0-1.32-2.27A24.5,24.5,0,1,0,43,47.47V71.24l-5.43-5.71c-3.93-3.93-9.19-3.63-11.81-1.09A8.28,8.28,0,0,0,23,70.88c.08,2.57,1.23,5.56,3.46,9.12,4.95,7.92,15.75,25,15.86,25.15a1,1,0,0,0,.08.11c1.56,2.08,5.6,8.43,5.6,12.8V120h4v-1.94c0-6.37-5.75-14.31-6.36-15.14-.69-1.07-11-17.37-15.79-25-4.61-7.37-2.46-9.45-1.31-10.57s4.06-1.1,6.2,1l8.85,9.13A2,2,0,0,0,47,76.06V24.5a4.5,4.5,0,0,1,9,0V64h4V44.5a4.5,4.5,0,0,1,9,0V64h4V48a4,4,0,0,1,8,0V70h4V55a4,4,0,0,1,8,0V91c0,1.68-2.45,6.74-4.23,10.42-2.41,5-3.77,7.88-3.77,9.64V120h4v-8.93c0-1,2-5,3.37-7.9C95.17,97.39,97,93.42,97,91V55A8,8,0,0,0,89,47ZM51.5,16A8.51,8.51,0,0,0,43,24.5v9.11a12.5,12.5,0,1,1,17,0V24.5A8.51,8.51,0,0,0,51.5,16ZM63.22,36.1A16.49,16.49,0,1,0,43,38.64v4.48a20.53,20.53,0,1,1,24.9-6.39A8.43,8.43,0,0,0,64.5,36,8.85,8.85,0,0,0,63.22,36.1Z"/></g></svg>