<svg xmlns="http://www.w3.org/2000/svg" viewBox="0 0 56 64"><defs><style>.cls-1{fill:#00acff;}</style></defs><title>Artboard 75</title><g id="Layer_19" data-name="Layer 19"><path class="cls-1" d="M45,3a1,1,0,0,1,1,1V60a1,1,0,0,1-1,1H4a1,1,0,0,1-1-1V4A1,1,0,0,1,4,3H45m0-3H4A4,4,0,0,0,0,4V60a4,4,0,0,0,4,4H45a4,4,0,0,0,4-4V4a4,4,0,0,0-4-4M56,13.5V17H53V13.5a1.5,1.5,0,0,1,3,0M53,18V57.6a4.15,4.15,0,0,0,.07.79l.3,1.61h2.25l.31-1.61A4.15,4.15,0,0,0,56,57.6V18Zm1,45.61a.45.45,0,0,0,.9,0L55.44,61H53.56Z"/></g></svg>