<svg xmlns="http://www.w3.org/2000/svg" viewBox="0 0 78 64"><defs><style>.cls-1{fill:#3c3c50;}</style></defs><title>Artboard 83</title><g id="Layer_19" data-name="Layer 19"><path class="cls-1" d="M75.5,0H2.5A2.5,2.5,0,0,0,0,2.5v48A2.5,2.5,0,0,0,2.5,53h73A2.5,2.5,0,0,0,78,50.5V2.5A2.5,2.5,0,0,0,75.5,0ZM75,42a1,1,0,0,1-1,1H4a1,1,0,0,1-1-1V4A1,1,0,0,1,4,3H74a1,1,0,0,1,1,1ZM51.57,64H26.43a.5.5,0,0,1-.32-.89l3.29-2.63a2,2,0,0,0,.73-1.23L31,54H47l.87,5.25a2,2,0,0,0,.73,1.23l3.29,2.63A.5.5,0,0,1,51.57,64ZM44,25.89l-.1.3a7.62,7.62,0,0,1-1.34,2.24,2.53,2.53,0,0,1-.37.36,1.39,1.39,0,0,1-.9.36,1.83,1.83,0,0,1-.74-.13L40,28.8a2.32,2.32,0,0,0-1.7,0c-.2.08-.4.17-.61.24a1.54,1.54,0,0,1-.74.07,1.46,1.46,0,0,1-.59-.28,2.9,2.9,0,0,1-.58-.58,7.79,7.79,0,0,1-1.65-3.42A6.26,6.26,0,0,1,34,23.2a4,4,0,0,1,.56-1.89,3,3,0,0,1,1.92-1.4A2.49,2.49,0,0,1,38,20l.76.29a1,1,0,0,0,.7,0l.78-.29a2.81,2.81,0,0,1,.82-.2,3,3,0,0,1,1.23.16,2.68,2.68,0,0,1,1.39,1l0,0a2.74,2.74,0,0,0-1.31,2.53A2.7,2.7,0,0,0,44,25.89Zm-4.2-6.34a2.74,2.74,0,0,0,1.66-2.49c0-.07,0-.15,0-.23l-.32.05a2.76,2.76,0,0,0-1.82,1.37A2.37,2.37,0,0,0,39,19.62c0,.05,0,.06.07.07A2.12,2.12,0,0,0,39.8,19.55Z"/></g></svg>