<svg xmlns="http://www.w3.org/2000/svg" viewBox="0 0 56 64"><defs><style>.cls-1{fill:#3c3c50;}</style></defs><title>Artboard 84</title><g id="Layer_19" data-name="Layer 19"><path class="cls-1" d="M45,3a1,1,0,0,1,1,1V60a1,1,0,0,1-1,1H4a1,1,0,0,1-1-1V4A1,1,0,0,1,4,3H45m0-3H4A4,4,0,0,0,0,4V60a4,4,0,0,0,4,4H45a4,4,0,0,0,4-4V4a4,4,0,0,0-4-4ZM29.5,34.89l-.1.3a7.62,7.62,0,0,1-1.34,2.24,2.53,2.53,0,0,1-.37.36,1.39,1.39,0,0,1-.9.36,1.83,1.83,0,0,1-.74-.13l-.53-.22a2.32,2.32,0,0,0-1.7,0c-.2.08-.4.17-.61.24a1.54,1.54,0,0,1-.74.07,1.46,1.46,0,0,1-.59-.28,2.9,2.9,0,0,1-.58-.58,7.79,7.79,0,0,1-1.65-3.42,6.26,6.26,0,0,1-.14-1.67,4,4,0,0,1,.56-1.89A3,3,0,0,1,22,28.91a2.49,2.49,0,0,1,1.48.12l.76.29a1,1,0,0,0,.7,0l.78-.29a2.81,2.81,0,0,1,.82-.2,3,3,0,0,1,1.23.16,2.68,2.68,0,0,1,1.39,1l0,0a2.74,2.74,0,0,0-1.31,2.53A2.7,2.7,0,0,0,29.5,34.89Zm-4.2-6.34A2.74,2.74,0,0,0,27,26.06c0-.07,0-.15,0-.23l-.32.05a2.76,2.76,0,0,0-1.82,1.37,2.37,2.37,0,0,0-.33,1.37c0,.05,0,.06.07.07A2.12,2.12,0,0,0,25.3,28.55ZM56,13.5V17H53V13.5a1.5,1.5,0,0,1,3,0ZM53,18V57.6a4.15,4.15,0,0,0,.07.79L53.38,60h2.24l.31-1.61A4.15,4.15,0,0,0,56,57.6V18Zm1,45.61a.45.45,0,0,0,.9,0L55.44,61H53.56Z"/></g></svg>