<svg xmlns="http://www.w3.org/2000/svg" viewBox="0 0 120 120"><defs><style>.cls-1{fill:none;}.cls-2{fill:#3c3c50;}</style></defs><title>Artboard 3</title><g id="Layer_1" data-name="Layer 1"><rect class="cls-1" width="120" height="120"/><path class="cls-2" d="M20.53,20a34.2,34.2,0,0,1,16.61-6.61c.85-.12,1.68-.14,2.53-.21s1.76-.07,2.65-.08a28,28,0,0,1,5.69.62,22.9,22.9,0,0,1,11.12,6l.26.27H43V18H37v2Zm-17,64H0v6H6V84H3.52ZM7.88,37A72.58,72.58,0,0,0,3.16,53.75c-.45,2.8-.77,5.6-1,8.39s-.31,5.58-.33,8.35c0,3.22.12,6.42.39,9.61A142,142,0,0,1,3.9,64.71c2.74-16.36,7.89-28.47,15.31-36a28.76,28.76,0,0,1,10-6.72h-11A43.08,43.08,0,0,0,7.88,37Zm67.3-15a3,3,0,1,0,0-2H59.39a23.89,23.89,0,0,1,1.8,2Zm3.57,68.81c-.41-.13-.87-.17-1.23-.33a9.23,9.23,0,0,1-1.93-.83,5.69,5.69,0,0,1-1.25-1.06,10.92,10.92,0,0,1-1.9-3.42,47,47,0,0,1-2-12.78c-.16-2.46-.26-5-.32-7.67l-.08-4-.15-4.09c-.1-2.76-.21-5.57-.44-8.48s-.61-5.87-1.16-8.95a48,48,0,0,0-2.73-9.61A30.3,30.3,0,0,0,61.19,22H49.3C60.17,27.59,60.59,44,61,60c.47,18.41.92,35.85,16,37.84V96h6v1.87a27.66,27.66,0,0,0,17.69-8.36c8.16-8.31,11.89-21.29,13.58-30.71a113.5,113.5,0,0,0,1.54-12.91q-1.11,5.07-2.53,10a99.72,99.72,0,0,1-5.5,14.76,49.6,49.6,0,0,1-8,12.32A24.59,24.59,0,0,1,89.26,90a22.5,22.5,0,0,1-6,1,27.28,27.28,0,0,1-3.13,0C79.66,91,79.21,90.88,78.75,90.81ZM3,24a3,3,0,0,0,2.82-2H18.18l.41-.39c.62-.56,1.26-1.1,1.94-1.61H5.82A3,3,0,1,0,3,24ZM117,96a3,3,0,0,0-2.82,2H102.65c-.77.7-1.58,1.37-2.43,2h14A3,3,0,1,0,117,96Zm-3-59v6h6V37Zm-4.64,53.05a54.68,54.68,0,0,0,6.71-16.6,82.09,82.09,0,0,0,2.08-16.86,96.58,96.58,0,0,0-.34-10.36c-.65,10.65-3.49,32.27-15.69,44.68A29.89,29.89,0,0,1,91.37,98h11.28c.19-.17.39-.33.58-.51A40.34,40.34,0,0,0,109.36,90.05ZM83,102H77v-2H60.43a22.81,22.81,0,0,0,2.75,2.41,23.34,23.34,0,0,0,5.71,3.1,23.67,23.67,0,0,0,5.89,1.38c1,.14,1.87.12,2.8.17s1.81,0,2.67-.09a42.36,42.36,0,0,0,5-.55,35.45,35.45,0,0,0,9.7-3.16,33.54,33.54,0,0,0,5.29-3.26H83ZM45.14,30.73a5.27,5.27,0,0,1,1.09,1.21A14.4,14.4,0,0,1,48,36a42.77,42.77,0,0,1,1.16,6.17c.27,2.28.43,4.72.51,7.24s.2,5.12.25,7.78l.07,4,.16,4.14c.12,2.78.26,5.64.53,8.58a85.34,85.34,0,0,0,1.41,9.11,41.06,41.06,0,0,0,3.34,9.8A28.43,28.43,0,0,0,58.67,98h12C59.83,92.41,59.41,76,59,60c-.47-18.41-.92-35.85-16-37.84V24H37V22.15a26.19,26.19,0,0,0-16.37,8C7.87,43.07,4.89,68.3,4.21,80.31A154.59,154.59,0,0,1,10.93,55.8,73.22,73.22,0,0,1,17.6,42.09a33.15,33.15,0,0,1,9.32-10,19.75,19.75,0,0,1,11.35-3.35,12,12,0,0,1,5.27,1A6.64,6.64,0,0,1,45.14,30.73ZM44.82,98a3,3,0,1,0,0,2H60.43a23.54,23.54,0,0,1-1.76-2Z"/></g></svg>