<?xml version="1.0" encoding="UTF-8"?>
<!DOCTYPE svg PUBLIC "-//W3C//DTD SVG 1.1//EN" "http://www.w3.org/Graphics/SVG/1.1/DTD/svg11.dtd">
<svg version="1.1" xmlns="http://www.w3.org/2000/svg" xmlns:xlink="http://www.w3.org/1999/xlink" x="0" y="0" width="60" height="60" viewBox="0, 0, 60, 60">
  <defs>
    <clipPath id="Clip_1">
      <path d="M5.601,4.6 L54.4,4.6 L54.4,55.4 L5.601,55.4 z M30.001,7 C17.298,7 7.001,17.298 7.001,30 C7.001,42.702 17.298,53 30.001,53 C42.703,53 53,42.702 53,30 C53,17.298 42.703,7 30.001,7 z"/>
    </clipPath>
    <filter id="Shadow_2">
      <feGaussianBlur in="SourceAlpha" stdDeviation="0.2"/>
      <feOffset dx="0" dy="1" result="offsetblur"/>
      <feFlood flood-color="#000000"/>
      <feComposite in2="offsetblur" operator="in"/>
    </filter>
    <linearGradient id="Gradient_1" gradientUnits="userSpaceOnUse" x1="30" y1="-53" x2="30" y2="-7" gradientTransform="matrix(1, 0, 0, -1, 0, 0)">
      <stop offset="0" stop-color="#EEEEEE"/>
      <stop offset="1" stop-color="#B6B6B6"/>
    </linearGradient>
    <radialGradient id="Gradient_2" gradientUnits="userSpaceOnUse" cx="29.695" cy="-52.864" r="27.762" gradientTransform="matrix(1, 0, 0, -1, 0, 0)">
      <stop offset="0" stop-color="#FFFFFF" stop-opacity="0.6"/>
      <stop offset="1" stop-color="#000000" stop-opacity="0"/>
    </radialGradient>
    <radialGradient id="Gradient_3" gradientUnits="userSpaceOnUse" cx="29.702" cy="-25.005" r="27.113" gradientTransform="matrix(1, 0, 0, -1, 0, 0)">
      <stop offset="0" stop-color="#FFFFFF" stop-opacity="0.6"/>
      <stop offset="1" stop-color="#000000" stop-opacity="0"/>
    </radialGradient>
    <linearGradient id="Gradient_4" gradientUnits="userSpaceOnUse" x1="29.977" y1="-52.954" x2="29.977" y2="-7" gradientTransform="matrix(1, 0, 0, -1, 0, 0)">
      <stop offset="0" stop-color="#A9A9A9"/>
      <stop offset="1" stop-color="#FFFFFF"/>
    </linearGradient>
  </defs>
  <g id="feature_magnifier.svg" transform="translate(0, 0)">
    <g opacity="0.1">
      <path d="M30.001,7 C42.703,7 53,17.298 53,30 C53,42.702 42.703,53 30.001,53 C17.298,53 7.001,42.702 7.001,30 C7.001,17.298 17.298,7 30.001,7 z" clip-path="url(#Clip_1)" filter="url(#Shadow_2)" fill="rgba(0,0,0,0.1)"/>
      <path d="M30.001,53 C42.703,53 53,42.702 53,30 C53,17.298 42.703,7 30.001,7 C17.298,7 7.001,17.298 7.001,30 C7.001,42.702 17.298,53 30.001,53 z" fill="url(#Gradient_1)"/>
      <path d="M30.001,53 C42.703,53 53,42.702 53,30 C53,17.298 42.703,7 30.001,7 C17.298,7 7.001,17.298 7.001,30 C7.001,42.702 17.298,53 30.001,53 z" fill="#949494"/>
    </g>
    <path d="M30.001,7 C42.703,7 53,17.298 53,30 C53,42.702 42.703,53 30.001,53 C17.298,53 7.001,42.702 7.001,30 C7.001,17.298 17.298,7 30.001,7 z" fill="url(#Gradient_2)" opacity="0.47"/>
    <path d="M52.462,25.058 C50.125,14.467 40.699,7.235 30.001,7 C19.164,7.009 10.054,14.656 7.539,25.058 L7.539,25.058 C13.263,18.734 21.706,16.277 30.001,16.08 C38.363,16.104 46.654,18.894 52.462,25.058 L52.462,25.058 z" fill="url(#Gradient_3)"/>
    <path d="M29.977,7 C42.667,7 52.954,17.287 52.954,29.976 C52.954,42.667 42.667,52.954 29.977,52.954 C17.288,52.954 7,42.666 7,29.976 C7,17.287 17.288,7 29.977,7 z M29.977,9.997 C18.943,9.997 9.997,18.942 9.997,29.976 C9.997,41.011 18.943,49.957 29.977,49.957 C41.012,49.957 49.957,41.011 49.957,29.976 C49.957,18.942 41.012,9.997 29.977,9.997 z" fill="url(#Gradient_4)"/>
  </g>
</svg>
