<?xml version="1.0" encoding="UTF-8"?>
<!DOCTYPE svg PUBLIC "-//W3C//DTD SVG 1.1//EN" "http://www.w3.org/Graphics/SVG/1.1/DTD/svg11.dtd">
<svg version="1.1" xmlns="http://www.w3.org/2000/svg" xmlns:xlink="http://www.w3.org/1999/xlink" x="0" y="0" width="60" height="60" viewBox="0, 0, 60, 60">
  <defs>
    <linearGradient id="Gradient_1" gradientUnits="userSpaceOnUse" x1="26.634" y1="13.196" x2="26.634" y2="51.67" gradientTransform="matrix(0.995, -0.097, 0.097, 0.995, 0, 0)">
      <stop offset="0" stop-color="#FFFFFF"/>
      <stop offset="1" stop-color="#A9A9A9"/>
    </linearGradient>
  </defs>
  <g id="feature_brush.svg" transform="translate(0, 0)">
    <path d="M27.243,32.706 C26.753,32.518 26.258,32.378 25.774,32.272 C24.183,32.616 18.027,34.668 17.92,39.683 C17.7,49.99 13.064,46.059 12.002,46.253 C11.387,46.367 12.99,50.448 18.167,50.134 C23.293,49.822 32.067,45.668 31.63,37.314 L31.702,37.209 C30.799,34.676 29.069,33.428 27.243,32.706 M46.269,9.29 C47.324,10.018 47.589,11.462 46.861,12.517 L35.86,29.26 C36.259,30.428 35.7,31.41 35.015,32.403 L32.818,35.59 C31.64,33.235 29.722,31.854 27.835,31.155 C27.53,31.04 27.227,30.941 26.926,30.855 L28.81,28.123 C29.492,27.131 29.93,26.467 31.272,26.391 L43.042,9.883 C43.77,8.828 45.214,8.563 46.269,9.29" fill="url(#Gradient_1)"/>
  </g>
</svg>
