<?xml version="1.0" encoding="UTF-8"?>
<!DOCTYPE svg PUBLIC "-//W3C//DTD SVG 1.1//EN" "http://www.w3.org/Graphics/SVG/1.1/DTD/svg11.dtd">
<svg version="1.1" xmlns="http://www.w3.org/2000/svg" xmlns:xlink="http://www.w3.org/1999/xlink" x="0" y="0" width="60" height="60" viewBox="0, 0, 60, 60">
  <defs>
    <linearGradient id="Gradient_1" gradientUnits="userSpaceOnUse" x1="30.446" y1="8.053" x2="30.446" y2="53">
      <stop offset="0" stop-color="#FFFFFF"/>
      <stop offset="1" stop-color="#A9A9A9"/>
    </linearGradient>
    <linearGradient id="Gradient_2" gradientUnits="userSpaceOnUse" x1="43.686" y1="8.053" x2="43.686" y2="18.339">
      <stop offset="0" stop-color="#FFFFFF"/>
      <stop offset="1" stop-color="#A9A9A9"/>
    </linearGradient>
  </defs>
  <g id="feature_psd.svg" transform="translate(0, 0)">
    <path d="M38.517,8.053 C38.517,8.053 48.79,18.326 48.79,18.326 C48.79,18.326 48.79,51.611 48.79,51.611 C48.79,52.378 48.168,53 47.4,53 C47.4,53 13.491,53 13.491,53 C12.724,53 12.102,52.378 12.102,51.611 C12.102,51.611 12.102,9.521 12.102,9.521 C12.102,8.754 12.724,8.132 13.491,8.132 C13.491,8.132 38.517,8.053 38.517,8.053 z M30.015,26.41 C27.789,26.41 26.445,27.642 26.445,29.252 C26.445,30.624 27.467,31.492 29.035,32.038 C30.169,32.444 30.617,32.78 30.617,33.368 C30.617,33.984 30.099,34.39 29.119,34.39 C28.209,34.39 27.327,34.096 26.753,33.802 L26.319,35.566 C26.851,35.86 27.915,36.14 28.993,36.14 C31.583,36.14 32.801,34.796 32.801,33.214 C32.801,31.884 32.017,31.016 30.351,30.4 C29.133,29.938 28.601,29.672 28.601,29.07 C28.601,28.58 29.049,28.16 29.973,28.16 C30.897,28.16 31.569,28.426 31.947,28.608 L32.423,26.886 C31.863,26.634 31.079,26.41 30.015,26.41 z M37.127,26.494 C36.049,26.494 35.027,26.564 34.243,26.69 L34.243,35.958 C34.775,36.028 35.559,36.098 36.665,36.098 C38.513,36.098 40.025,35.706 41.019,34.88 C41.929,34.11 42.587,32.864 42.587,31.058 C42.587,29.392 41.971,28.23 40.991,27.502 C40.081,26.816 38.919,26.494 37.127,26.494 z M37.351,28.132 C39.185,28.132 40.333,29.168 40.319,31.128 C40.319,33.382 39.059,34.446 37.127,34.432 C36.861,34.432 36.567,34.432 36.385,34.39 L36.385,28.216 C36.567,28.174 36.875,28.132 37.351,28.132 z M21.433,26.494 C20.131,26.494 19.207,26.578 18.549,26.69 L18.549,36 L20.663,36 L20.663,32.626 C20.859,32.654 21.111,32.668 21.391,32.668 C22.651,32.668 23.729,32.36 24.457,31.674 C25.017,31.142 25.325,30.358 25.325,29.434 C25.325,28.51 24.919,27.726 24.317,27.25 C23.687,26.746 22.749,26.494 21.433,26.494 z M21.545,28.104 C22.609,28.104 23.211,28.622 23.211,29.49 C23.211,30.456 22.511,31.03 21.377,31.03 C21.069,31.03 20.845,31.016 20.663,30.974 L20.663,28.188 C20.817,28.146 21.111,28.104 21.545,28.104 z" fill="url(#Gradient_1)"/>
    <path d="M39.906,18.339 C39.139,18.339 38.517,17.717 38.517,16.95 C38.517,16.95 38.582,8.053 38.582,8.053 C38.582,8.053 48.854,18.326 48.854,18.326" fill="url(#Gradient_2)"/>
    <text transform="matrix(1, 0, 0, 1, -216, -24.5)"/>
  </g>
</svg>
