<?xml version="1.0" encoding="UTF-8"?>
<!DOCTYPE svg PUBLIC "-//W3C//DTD SVG 1.1//EN" "http://www.w3.org/Graphics/SVG/1.1/DTD/svg11.dtd">
<svg version="1.1" xmlns="http://www.w3.org/2000/svg" xmlns:xlink="http://www.w3.org/1999/xlink" x="0" y="0" width="60" height="60" viewBox="0, 0, 60, 60">
  <defs>
    <linearGradient id="Gradient_1" gradientUnits="userSpaceOnUse" x1="29.727" y1="16.594" x2="29.727" y2="47">
      <stop offset="0" stop-color="#FFFFFF"/>
      <stop offset="1" stop-color="#999999"/>
    </linearGradient>
  </defs>
  <g id="feature_text.svg" transform="translate(0, 0)">
    <path d="M44.532,25.802 Q47.42,25.802 49.103,27.03 Q50.787,28.257 51.286,29.69 Q51.59,30.602 51.59,33.882 L51.59,41.766 Q51.59,43.156 51.699,43.514 Q51.807,43.872 52.025,44.046 Q52.242,44.22 52.524,44.22 Q53.089,44.22 53.675,43.416 L54.327,43.938 Q53.241,45.545 52.079,46.272 Q50.917,47 49.44,47 Q47.703,47 46.725,46.186 Q45.748,45.371 45.531,43.72 Q41.817,47 38.863,47 Q37.125,47 35.974,45.86 Q34.823,44.72 34.823,43.004 Q34.823,40.68 36.821,38.823 Q38.82,36.966 45.531,33.882 L45.531,31.84 Q45.531,29.538 45.281,28.941 Q45.031,28.344 44.336,27.898 Q43.641,27.453 42.772,27.453 Q41.361,27.453 40.448,28.083 Q39.884,28.474 39.884,28.995 Q39.884,29.451 40.492,30.124 Q41.317,31.058 41.317,31.927 Q41.317,32.991 40.524,33.741 Q39.732,34.49 38.45,34.49 Q37.082,34.49 36.159,33.665 Q35.236,32.839 35.236,31.732 Q35.236,30.168 36.474,28.745 Q37.712,27.323 39.927,26.563 Q42.143,25.802 44.532,25.802 z M45.531,35.337 Q42.903,36.879 41.621,38.638 Q40.774,39.811 40.774,41.006 Q40.774,42.005 41.491,42.765 Q42.034,43.351 43.011,43.351 Q44.097,43.351 45.531,42.135 L45.531,35.337 z M20.573,25.818 L22.618,35.415 L14.992,35.377 L20.573,25.818 z M24.597,16.599 L23.62,16.594 L9.513,41.401 Q7.97,44.104 6.989,44.967 Q6.248,45.592 5.128,45.782 L5.129,46.584 L13.928,46.628 L13.71,45.825 Q12.41,45.753 11.735,45.305 Q11.06,44.857 10.918,44.336 Q10.783,43.837 10.864,43.338 Q10.969,42.688 11.359,41.887 L12.766,39.4 L13.977,37.15 L23.102,37.196 L23.928,40.953 Q24.469,43.341 24.232,44.305 Q23.995,45.269 23.47,45.57 Q23.223,45.699 21.38,45.863 L21.359,46.666 L34.113,46.729 L34.112,45.927 Q32.692,45.811 31.911,45.135 Q31.131,44.459 30.729,42.982 Q30.623,42.591 30.174,40.702 L24.597,16.599 z" fill="url(#Gradient_1)" id="icon"/>
  </g>
</svg>
