<?xml version="1.0" encoding="UTF-8"?>
<!DOCTYPE svg PUBLIC "-//W3C//DTD SVG 1.1//EN" "http://www.w3.org/Graphics/SVG/1.1/DTD/svg11.dtd">
<svg version="1.1" xmlns="http://www.w3.org/2000/svg" xmlns:xlink="http://www.w3.org/1999/xlink" x="0" y="0" width="60" height="60" viewBox="0, 0, 60, 60">
  <defs>
    <linearGradient id="Gradient_1" gradientUnits="userSpaceOnUse" x1="31" y1="8" x2="31" y2="52">
      <stop offset="0" stop-color="#FFFFFF"/>
      <stop offset="1" stop-color="#A9A9A9"/>
    </linearGradient>
  </defs>
  <g id="feature_shapes.svg" transform="translate(0, 0)">
    <path d="M16,23 L24,23 L24,25 L41,25 L41,12 L11,12 L11,34 C11,34 18,34 18,34 C18,34 18,31 18,31 C18,31 16,31 16,31" fill="#C1C1C1" fill-opacity="0.25"/>
    <path d="M21,28 L51,28 L51,48 L21,48 L21,28 z" fill="#C1C1C1" fill-opacity="0.35"/>
    <path d="M23,24 L23,26 L49,26 L49,24 L55,24 L55,30 L53,30 L53,46 L55,46 L55,52 L49,52 L49,50 L23,50 L23,52 L17,52 L17,46 L19,46 L19,30 L17,30 L17,24 L23,24 z M49,28 L23,28 L23,30 L21,30 L21,46 L23,46 L23,48 L49,48 L49,46 L51,46 L51,30 L49,30 L49,28 z M13,8 L7,8 L7,14 L9,14 L9,32 L7,32 L7,38 L13,38 L13,36 L18,36 L18,34 L13,34 L13,32 L11,32 L11,14 L13,14 L13,12 L39,12 L39,14 L41,14 L41,25 L43,25 L43,14 L45,14 L45,8 L39,8 L39,10 L13,10 L13,8 z" fill="url(#Gradient_1)"/>
  </g>
</svg>
