<svg xmlns="http://www.w3.org/2000/svg" viewBox="0 0 120 120"><defs><style>.cls-1{fill:#a0a5c8;}</style></defs><title>Artboard 48</title><g id="Layer_14" data-name="Layer 14"><path class="cls-1" d="M100,0H20A20,20,0,0,0,0,20v80a20,20,0,0,0,20,20h80a20,20,0,0,0,20-20V20A20,20,0,0,0,100,0ZM99,80a8,8,0,0,1-8,8H29a8,8,0,0,1-8-8V51a3,3,0,0,1,6,0V80a2,2,0,0,0,2,2H91a2,2,0,0,0,2-2V42L62.06,71.18a3,3,0,0,1-4.12,0L25.6,40.63A5,5,0,0,1,29,32H80a3,3,0,0,1,0,6H31.55L60,64.87,90.57,36A5,5,0,0,1,99,39.64Z"/></g></svg>