<svg xmlns="http://www.w3.org/2000/svg" viewBox="0 0 120 120"><defs><style>.cls-1{fill:#3c3c50;}</style></defs><title>Artboard 47</title><g id="Layer_12" data-name="Layer 12"><path class="cls-1" d="M100,6a14,14,0,0,1,14,14v80a14,14,0,0,1-14,14H20A14,14,0,0,1,6,100V20A14,14,0,0,1,20,6h80m0-6H20A20,20,0,0,0,0,20v80a20,20,0,0,0,20,20h80a20,20,0,0,0,20-20V20A20,20,0,0,0,100,0ZM28,68a3,3,0,0,0,0-6H24a3,3,0,0,0-3,3h0a3,3,0,0,0,3,3Zm0-10a3,3,0,0,0,0-6H24a3,3,0,0,0-3,3h0a3,3,0,0,0,3,3Zm0-10a3,3,0,0,0,0-6H24a3,3,0,0,0,0,6Zm0,30a3,3,0,0,0,3-3h0a3,3,0,0,0-3-3H24a3,3,0,0,0,0,6ZM96,68a3,3,0,0,0,0-6H92a3,3,0,0,0-3,3h0a3,3,0,0,0,3,3Zm0-10a3,3,0,0,0,0-6H92a3,3,0,0,0-3,3h0a3,3,0,0,0,3,3Zm0-10a3,3,0,0,0,0-6H92a3,3,0,0,0,0,6Zm0,30a3,3,0,0,0,3-3h0a3,3,0,0,0-3-3H92a3,3,0,0,0,0,6ZM52,28a3,3,0,0,0,6,0V24a3,3,0,0,0-3-3h0a3,3,0,0,0-3,3Zm10,0a3,3,0,0,0,6,0V24a3,3,0,0,0-3-3h0a3,3,0,0,0-3,3Zm10,0a3,3,0,0,0,6,0V24a3,3,0,0,0-6,0ZM42,28a3,3,0,0,0,3,3h0a3,3,0,0,0,3-3V24a3,3,0,0,0-6,0ZM52,96a3,3,0,0,0,6,0V92a3,3,0,0,0-3-3h0a3,3,0,0,0-3,3Zm10,0a3,3,0,0,0,6,0V92a3,3,0,0,0-3-3h0a3,3,0,0,0-3,3Zm10,0a3,3,0,0,0,6,0V92a3,3,0,0,0-6,0ZM42,96a3,3,0,0,0,3,3h0a3,3,0,0,0,3-3V92a3,3,0,0,0-6,0ZM62.27,58.34a1.77,1.77,0,0,1-2,1.88H58.77V56.47h1.5A1.76,1.76,0,0,1,62.27,58.34ZM85,42V78a7,7,0,0,1-7,7H42a7,7,0,0,1-7-7V42a7,7,0,0,1,7-7H78A7,7,0,0,1,85,42ZM53.6,59.65H49.15v1.61h2.3v.17A2.29,2.29,0,0,1,49,63.63c-1.76,0-2.87-1.4-2.87-3.69s1.05-3.58,2.79-3.58a2.4,2.4,0,0,1,2.42,1.77H53.5a4.37,4.37,0,0,0-4.64-3.6c-3.1,0-5,2-5,5.44s1.94,5.5,5.09,5.5c3,0,4.69-1.75,4.69-4.62Zm10.92-1.32a3.45,3.45,0,0,0-3.66-3.61h-4.3V65.28h2.21V62h2A3.52,3.52,0,0,0,64.52,58.33Zm11.66-3.61H74v6.61a2.22,2.22,0,1,1-4.43,0V54.72H67.32v6.83c0,2.33,1.72,3.92,4.43,3.92s4.43-1.59,4.43-3.92Z"/></g></svg>