<svg xmlns="http://www.w3.org/2000/svg" viewBox="0 0 120 120"><defs><style>.cls-1{fill:#3c3c50;}</style></defs><title>Artboard 53</title><g id="Layer_15" data-name="Layer 15"><path class="cls-1" d="M77.5,18h-35A10.51,10.51,0,0,0,32,28.5v81A10.51,10.51,0,0,0,42.5,120h35A10.51,10.51,0,0,0,88,109.5v-81A10.51,10.51,0,0,0,77.5,18ZM82,109.5a4.51,4.51,0,0,1-4.5,4.5h-35a4.51,4.51,0,0,1-4.5-4.5v-81A4.51,4.51,0,0,1,42.5,24H47a3,3,0,0,1,3,3,3,3,0,0,0,3,3H67a3,3,0,0,0,3-3,3,3,0,0,1,3-3h4.5A4.51,4.51,0,0,1,82,28.5ZM8,65V5a5,5,0,0,1,5-5h94a5,5,0,0,1,5,5V65a5,5,0,0,1-5,5H92V64h14V6H14V64H28v6H13A5,5,0,0,1,8,65Zm112,8v3a3,3,0,0,1-3,3H92V73ZM28,79H3a3,3,0,0,1-3-3V73H28Zm84,12-10,10L92,91h7V85h6v6ZM18,85,28,95H21v6H15V95H8Z"/></g></svg>