<svg xmlns="http://www.w3.org/2000/svg" viewBox="0 0 120 120"><defs><style>.cls-1{fill:#3c3c50;}</style></defs><title>Artboard 38</title><g id="Layer_8" data-name="Layer 8"><path class="cls-1" d="M100,0H20A20,20,0,0,0,0,20v80a20,20,0,0,0,20,20h80a20,20,0,0,0,20-20V20A20,20,0,0,0,100,0Zm16,100a16,16,0,0,1-16,16H20A16,16,0,0,1,4,100V20A16,16,0,0,1,20,4h80a16,16,0,0,1,16,16ZM71.27,51.3a1.18,1.18,0,0,1,.36.9,1.4,1.4,0,0,1-.46,1,1.37,1.37,0,0,1-1,.45,1.18,1.18,0,0,1-.89-.35,1.21,1.21,0,0,1-.36-.91,1.35,1.35,0,0,1,.45-1,1.43,1.43,0,0,1,1-.45A1.18,1.18,0,0,1,71.27,51.3Zm-3-2.74a1,1,0,0,1,.32.79,1.36,1.36,0,0,1-1.25,1.25,1.05,1.05,0,0,1-.79-.31,1.09,1.09,0,0,1-.31-.79,1.23,1.23,0,0,1,.4-.85,1.18,1.18,0,0,1,.85-.39A1,1,0,0,1,68.29,48.56Zm-2.47,7.76a1.55,1.55,0,0,1,.47,1.1,1.73,1.73,0,0,1-1.63,1.64,1.62,1.62,0,0,1-1.57-1.58,1.56,1.56,0,0,1,.5-1.13,1.58,1.58,0,0,1,1.13-.5A1.55,1.55,0,0,1,65.82,56.32ZM40.33,76.73a1,1,0,0,1,.32.57,1.11,1.11,0,0,1-.08.54,2,2,0,0,1-.33.51l-.43.46-.91.91-1.59-1.6,1-1a4.19,4.19,0,0,1,.45-.39,1.8,1.8,0,0,1,.5-.28,1.14,1.14,0,0,1,.52,0A1,1,0,0,1,40.33,76.73Zm12.05-7.86-1.32-3,3,1.31Zm-18.5,18.5-1.32-3,3,1.32ZM76.65,46a2.18,2.18,0,0,1,.26.94,1.28,1.28,0,0,1-1.25,1.25,2.35,2.35,0,0,1-.93-.27,4.77,4.77,0,0,1-.88-.61c-.27-.24-.5-.45-.69-.64s-.4-.41-.64-.69a4.22,4.22,0,0,1-.6-.87,2.21,2.21,0,0,1-.28-.94,1.3,1.3,0,0,1,1.26-1.25,2.1,2.1,0,0,1,.94.27,4.27,4.27,0,0,1,.87.61,9.36,9.36,0,0,1,.69.64c.18.18.4.41.64.68A5.13,5.13,0,0,1,76.65,46ZM86.87,16.16a5,5,0,0,0-7.07,0L16.16,79.8a5,5,0,0,0,0,7.07l17,17a5,5,0,0,0,7.07,0L103.84,40.2a5,5,0,0,0,0-7.07ZM55.5,61.61a1.36,1.36,0,0,1,.29-.43,1.23,1.23,0,0,1,.43-.28,1.12,1.12,0,0,1,.48-.1,1.15,1.15,0,0,1,.48.1,1.23,1.23,0,0,1,.43.28,1.36,1.36,0,0,1,.29.43,1.23,1.23,0,0,1,0,1,1.36,1.36,0,0,1-.29.43,1.29,1.29,0,0,1-.42.28,1.23,1.23,0,0,1-.49.1,1.12,1.12,0,0,1-.48-.1,1.23,1.23,0,0,1-.43-.28,1.36,1.36,0,0,1-.29-.43,1.23,1.23,0,0,1,0-1Zm-16,25.71-2.08-.88L34.7,89.16l.9,2.07-1.7,1.7-4-10,1.28-1.27,10.06,4Zm5.73-5.72L41,80.26l-.76.76,2.8,2.8-1.55,1.55-7-7,2.71-2.71a6.29,6.29,0,0,1,1.12-.91,3.44,3.44,0,0,1,1.18-.5,2.46,2.46,0,0,1,1.23.08,3.08,3.08,0,0,1,1.24.81,3,3,0,0,1,.88,1.65,2.48,2.48,0,0,1-.47,1.79l4.74,1.18Zm2.2-2.21-7-7,4.76-4.76L46.62,69l-3.21,3.22,1.3,1.31,3-3L49.18,72l-3,3,1.42,1.43L51,73l1.42,1.43ZM58,68.82l-2.09-.88-2.72,2.72.9,2.07-1.71,1.7-4-10,1.28-1.28,10.06,4Zm3-3.07a1.39,1.39,0,0,1-.72.71,1.18,1.18,0,0,1-.48.1,1.19,1.19,0,0,1-.49-.1,1.1,1.1,0,0,1-.42-.29,1.22,1.22,0,0,1-.29-.42,1.19,1.19,0,0,1-.1-.49,1.18,1.18,0,0,1,.1-.48,1.36,1.36,0,0,1,.29-.43,1.25,1.25,0,0,1,1.39-.28,1.33,1.33,0,0,1,.43.28,1.55,1.55,0,0,1,.29.43,1.35,1.35,0,0,1,0,1Zm6.94-7a4.43,4.43,0,0,1-.86,1.2,4.19,4.19,0,0,1-1.2.85,3.25,3.25,0,0,1-3.82-.65,4.47,4.47,0,0,1-.61-.75,4.8,4.8,0,0,1-.41-.77,4.67,4.67,0,0,1-.26-.8c-.07-.27-.13-.55-.2-.84L59.79,53l1.81-1.81.86,4.14a2.75,2.75,0,0,1,.19-.28,1.49,1.49,0,0,1,.23-.27A3.1,3.1,0,0,1,64,54.09a3,3,0,0,1,1.17-.21,3.13,3.13,0,0,1,1.18.28,3.72,3.72,0,0,1,1,.74,3.19,3.19,0,0,1,.78,1.19,3.25,3.25,0,0,1,.21,1.31A3.79,3.79,0,0,1,68,58.72Zm5.74-6.42a3.48,3.48,0,0,1-.41,1.17,4.55,4.55,0,0,1-.8,1.06,4.48,4.48,0,0,1-1.06.8,3.28,3.28,0,0,1-1.17.41,2.63,2.63,0,0,1-1.18-.09A2.79,2.79,0,0,1,68,55a2.32,2.32,0,0,1-.4-3l0,0a2.4,2.4,0,0,1-1.45.3,2.19,2.19,0,0,1-1.29-.67,2.51,2.51,0,0,1-.67-1,2.45,2.45,0,0,1-.1-1.11,3.51,3.51,0,0,1,.39-1.11,4.67,4.67,0,0,1,.79-1,5,5,0,0,1,1-.8,3.19,3.19,0,0,1,1.11-.38,2.57,2.57,0,0,1,1.1.1,2.62,2.62,0,0,1,1,.66,2.25,2.25,0,0,1,.67,1.29,2.4,2.4,0,0,1-.3,1.45l0,0a2.31,2.31,0,0,1,3,.4,2.58,2.58,0,0,1,.69,1.09A2.64,2.64,0,0,1,73.75,52.3Zm5.11-4.75a3.77,3.77,0,0,1-2.57,2.57,3.34,3.34,0,0,1-1.66-.06,5.17,5.17,0,0,1-1.57-.76,9.79,9.79,0,0,1-1.38-1.15,11.14,11.14,0,0,1-1.16-1.38,5.47,5.47,0,0,1-.76-1.58,3.54,3.54,0,0,1-.06-1.65A3.8,3.8,0,0,1,72.28,41a3.54,3.54,0,0,1,1.65.06,5.2,5.2,0,0,1,1.57.77,9.15,9.15,0,0,1,1.38,1.15A10.33,10.33,0,0,1,78,44.32a5.22,5.22,0,0,1,.76,1.58A3.29,3.29,0,0,1,78.86,47.55ZM89.2,37.81a5.39,5.39,0,0,1-.5.56,3.89,3.89,0,0,1-.77.61,2.12,2.12,0,0,1-.8.3,1.58,1.58,0,0,1-.83-.08,2,2,0,0,1-.8-.54l-2.29-2.28-.55.55-.4.4-.7.7,3.62,3.62L83.7,43.14l-3.63-3.63-1,1L77.9,39.31l1-1L78,37.48a5.48,5.48,0,0,1-.67-.82,2.2,2.2,0,0,1-.36-.89,2,2,0,0,1,.15-1A3.88,3.88,0,0,1,78,33.65c.16-.15.31-.29.47-.42a5.6,5.6,0,0,1,.49-.36l1.19,1.33a2.94,2.94,0,0,0-.31.16,1.74,1.74,0,0,0-.27.22,1.1,1.1,0,0,0-.38.69q0,.33.45.81l.76.76.7-.7.4-.4.55-.55L80.6,33.76l1.48-1.48,1.43,1.42,1.27-1.27-.84-.84.28-3.41q0-.25,0-.54a.58.58,0,0,0-.15-.43.42.42,0,0,0-.47-.12,1.29,1.29,0,0,0-.5.32.91.91,0,0,0-.3.61.81.81,0,0,0,.18.58l-1.07.95A1.86,1.86,0,0,1,81.43,28a2.91,2.91,0,0,1,.86-1.52,3.34,3.34,0,0,1,.72-.56,2.25,2.25,0,0,1,.74-.28,1.38,1.38,0,0,1,.7,0,1.51,1.51,0,0,1,.63.39,2.92,2.92,0,0,1,.39.47,2.05,2.05,0,0,1,.18.41,2,2,0,0,1,0,.42c0,.14,0,.29,0,.46l-.32,2.46,0,0,2-2,.83.83-3.3,3.31L86,33.58l-1.3,1.31,1.6,1.6a3.92,3.92,0,0,0,.38.35,1.09,1.09,0,0,0,.37.19.69.69,0,0,0,.4,0,1.28,1.28,0,0,0,.44-.32,3.73,3.73,0,0,0,.29-.33.81.81,0,0,0,.18-.41l1.24,1.24A3.52,3.52,0,0,1,89.2,37.81Z"/></g></svg>