<svg xmlns="http://www.w3.org/2000/svg" viewBox="0 0 120 120"><defs><style>.cls-1{fill:#3c3c50;}</style></defs><title>Artboard 22</title><g id="Layer_3" data-name="Layer 3"><path class="cls-1" d="M100,0H20A20,20,0,0,0,0,20v80a20,20,0,0,0,20,20h80a20,20,0,0,0,20-20V20A20,20,0,0,0,100,0ZM25.74,38.38,43.68,26.81a1.59,1.59,0,0,1,1.88.1l12.06,9.7a1.62,1.62,0,0,1-.14,2.61L39.54,50.79a1.63,1.63,0,0,1-1.88-.1L25.6,41A1.6,1.6,0,0,1,25.74,38.38ZM25.6,62.63l12.06-9.71a1.63,1.63,0,0,1,1.88-.1L57.48,64.39A1.62,1.62,0,0,1,57.62,67L45.56,76.7a1.59,1.59,0,0,1-1.88.1L25.74,65.23A1.6,1.6,0,0,1,25.6,62.63ZM81.47,79.8a1.46,1.46,0,0,1-.7,1.25L60.66,93.24a1.46,1.46,0,0,1-1.51,0L39,81.05a1.46,1.46,0,0,1-.7-1.25V78.64a1.45,1.45,0,0,1,2.24-1.23l3.33,2.15a1.44,1.44,0,0,0,1.7-.09L59.12,68.7a1.46,1.46,0,0,1,1.82,0L74.39,79.47a1.46,1.46,0,0,0,1.7.09l3.13-2a1.46,1.46,0,0,1,2.25,1.22ZM94.26,65.23,76.32,76.8a1.59,1.59,0,0,1-1.88-.1L62.38,67a1.62,1.62,0,0,1,.14-2.61L80.46,52.82a1.63,1.63,0,0,1,1.88.1L94.4,62.63A1.6,1.6,0,0,1,94.26,65.23ZM94.4,41,82.34,50.69a1.63,1.63,0,0,1-1.88.1L62.52,39.22a1.62,1.62,0,0,1-.14-2.61l12.06-9.7a1.59,1.59,0,0,1,1.88-.1L94.26,38.38A1.6,1.6,0,0,1,94.4,41Z"/></g></svg>