<svg xmlns="http://www.w3.org/2000/svg" viewBox="0 0 120 120"><defs><style>.cls-1{fill:#3c3c50;}</style></defs><title>Artboard 29</title><g id="Layer_5" data-name="Layer 5"><path class="cls-1" d="M88.73,94.12a16.34,16.34,0,0,1-1.12,6.12,18.64,18.64,0,0,1-2,3.72l-6-16c.16,0,.3-.1.46-.15,2.57-.72,5.28-1.36,8-1.89l.67-.11ZM34.21,114.24q-10.82-1.62-10.81-5.39a9.91,9.91,0,0,1,.88-3.6l11.35-29h36.8c2.19-.61,4.34-1.17,6.42-1.66l.22,0c1.82-.32,3.5-.67,5-1a35.45,35.45,0,0,0,3.81-1.11l.14,0,.14,0,.46-.15a17.25,17.25,0,0,0,.12-2.31,28.35,28.35,0,0,0-.55-5.75l-2.24-5.6C85,57.31,83.28,56,79.1,56a11.77,11.77,0,0,0-3.57.46,4,4,0,0,0-1.67,1A8.6,8.6,0,0,0,72.3,60c-.54,1.26-1.09,2.76-1.64,4.44l1.66,4.44H68.05a8.32,8.32,0,0,1-2,1.29,43.57,43.57,0,0,1-6.44,2.2,27.5,27.5,0,0,1-2.8.74,15.43,15.43,0,0,1-3.36.43c-.8,0-4.28-.27-5.35-4.66h-9.5L55.83,24.83,64,46.56A48.71,48.71,0,0,1,70.17,44a36.29,36.29,0,0,1,9.21-1.88L62.75.36A9.65,9.65,0,0,0,60.62,0q-2.13,0-3.37,3.06L14.54,107.41a8.14,8.14,0,0,1-4,4.22,31.19,31.19,0,0,1-8.25,2.25A2.21,2.21,0,0,0,.44,115,4.92,4.92,0,0,0,0,117.12,12.33,12.33,0,0,0,.35,120q4.08-.54,7.8-.72t7.27-.18c3.43,0,6.91.09,10.46.27s6.91.39,10.1.63a15.49,15.49,0,0,0,.36-2.88,3.83,3.83,0,0,0-.45-1.89A2.11,2.11,0,0,0,34.21,114.24Zm61.08,4.62a16.82,16.82,0,0,1-2.59-3.25,24.26,24.26,0,0,1-4.31,3.7c2.58-.1,5-.16,7.19-.19Zm21.13-5a7,7,0,0,1-2.57.33,6.23,6.23,0,0,1-2.91-.74,6.7,6.7,0,0,1-2.58-3.07,12.81,12.81,0,0,1-1.25-4.07,60.21,60.21,0,0,1-.41-8.38V69.39a32.06,32.06,0,0,0-1.77-11.61,16.63,16.63,0,0,0-5.13-7.13,19.25,19.25,0,0,0-8-3.65,50,50,0,0,0-10.49-1,30.62,30.62,0,0,0-9.81,1.74,43.2,43.2,0,0,0-9.56,4.57,28.31,28.31,0,0,0-7.24,6.47,11.9,11.9,0,0,0-2.82,7.3c0,2.32.55,3.48,1.66,3.48A11.85,11.85,0,0,0,56,69.23c1-.22,1.83-.44,2.5-.66a40.45,40.45,0,0,0,5.9-2,4,4,0,0,0,2.25-2.65c.66-2.1,1.33-3.93,2-5.48A12.82,12.82,0,0,1,71,54.71a7.82,7.82,0,0,1,3.32-2.07A15.46,15.46,0,0,1,79.1,52Q86.74,52,89.74,57t3,12.86a11.36,11.36,0,0,1-.58,4.48q-.59,1.17-2.91,1.83A38.83,38.83,0,0,1,85,77.44q-2.41.59-5.24,1.08-5,1.17-10.39,2.82a45.18,45.18,0,0,0-10,4.4,23.69,23.69,0,0,0-7.48,7A17.84,17.84,0,0,0,49,103.08a15.89,15.89,0,0,0,2.16,8.79A15.16,15.16,0,0,0,56.65,117a21.4,21.4,0,0,0,7.07,2.41,45.65,45.65,0,0,0,7.06.58A30.27,30.27,0,0,0,84,117.26q5.75-2.73,9.89-10.2a18.44,18.44,0,0,0,1.35,4.81A13.21,13.21,0,0,0,98.11,116a13.51,13.51,0,0,0,4.54,2.9A17.11,17.11,0,0,0,109,120a18.88,18.88,0,0,0,11-3c-.11-2.32-.78-3.48-2-3.48A3.9,3.9,0,0,0,116.42,113.86ZM92.73,94.12a20,20,0,0,1-1.42,7.63,21.15,21.15,0,0,1-3.68,6,15.74,15.74,0,0,1-5.35,4A15,15,0,0,1,76,113.2a10.93,10.93,0,0,1-8.11-3.32q-3.26-3.31-3.26-9.62a14.74,14.74,0,0,1,1.92-7.8,16.45,16.45,0,0,1,5.11-5.23A26.2,26.2,0,0,1,78.93,84c2.73-.78,5.55-1.44,8.45-2l5.35-.82Z"/></g></svg>