<svg xmlns="http://www.w3.org/2000/svg" viewBox="0 0 120 120"><defs><style>.cls-1{fill:none;}.cls-2{fill:#3c3c50;}</style></defs><title>Artboard 28</title><g id="Layer_5" data-name="Layer 5"><rect class="cls-1" width="120" height="120"/><path class="cls-2" d="M120,75h-4.8C112.07,63.39,100.05,54.32,85,52.39V48H78V18h4V6H70v4H12V6H0V18H4V60H0V72H12V68H45.94a25.12,25.12,0,0,0-3.14,7H38V87h4.8C45.93,98.61,58,107.68,73,109.61V114H85v-4.39c15-1.93,27.07-11,30.2-22.61H120ZM12,64V60H8V18h4V14H70v4h4V48H73v4.39c-9.81,1.26-18.34,5.55-24,11.61Zm73,41.58V102H73v3.58c-12.75-1.78-23-9.13-26-18.58h3V75H47c3.08-9.45,13.28-16.8,26-18.58V60H85V56.42C97.75,58.2,108,65.55,111,75h-3V87h3C108,96.45,97.75,103.8,85,105.58Z"/></g></svg>