<svg xmlns="http://www.w3.org/2000/svg" viewBox="0 0 34 64"><defs><style>.cls-1{fill:#3c3c50;}</style></defs><title>Artboard 85</title><g id="Layer_19" data-name="Layer 19"><path class="cls-1" d="M29,0H5A5,5,0,0,0,0,5V59a5,5,0,0,0,5,5H29a5,5,0,0,0,5-5V5A5,5,0,0,0,29,0Zm3,59a3,3,0,0,1-3,3H5a3,3,0,0,1-3-3V5A3,3,0,0,1,5,2H8a2,2,0,0,1,2,2,2,2,0,0,0,2,2H22a2,2,0,0,0,2-2,2,2,0,0,1,2-2h3a3,3,0,0,1,3,3ZM22,34.89l-.1.3a7.62,7.62,0,0,1-1.34,2.24,2.53,2.53,0,0,1-.37.36,1.39,1.39,0,0,1-.9.36,1.83,1.83,0,0,1-.74-.13L18,37.8a2.32,2.32,0,0,0-1.7,0c-.2.08-.4.17-.61.24a1.54,1.54,0,0,1-.74.07,1.46,1.46,0,0,1-.59-.28,2.9,2.9,0,0,1-.58-.58,7.79,7.79,0,0,1-1.65-3.42A6.26,6.26,0,0,1,12,32.2a4,4,0,0,1,.56-1.89,3,3,0,0,1,1.92-1.4A2.49,2.49,0,0,1,16,29l.76.29a1,1,0,0,0,.7,0l.78-.29a2.81,2.81,0,0,1,.82-.2,3,3,0,0,1,1.23.16,2.68,2.68,0,0,1,1.39,1l0,0a2.74,2.74,0,0,0-1.31,2.53A2.7,2.7,0,0,0,22,34.89Zm-4.2-6.34a2.74,2.74,0,0,0,1.66-2.49c0-.07,0-.15,0-.23l-.32.05a2.76,2.76,0,0,0-1.82,1.37A2.37,2.37,0,0,0,17,28.62c0,.05,0,.06.07.07A2.12,2.12,0,0,0,17.8,28.55Z"/></g></svg>