<svg xmlns="http://www.w3.org/2000/svg" viewBox="0 0 120 120"><defs><style>.cls-1{fill:#3c3c50;}</style></defs><title>Artboard 2 copy</title><g id="Layer_2" data-name="Layer 2"><path class="cls-1" d="M97,46a23,23,0,0,0,23-23h0A23,23,0,0,0,97,0h0A23,23,0,0,0,74,23V38H46V23A23,23,0,0,0,23,0h0A23,23,0,0,0,0,23H0A23,23,0,0,0,23,46H38V74H23A23,23,0,0,0,0,97H0a23,23,0,0,0,23,23h0A23,23,0,0,0,46,97V82H74V97a23,23,0,0,0,23,23h0a23,23,0,0,0,23-23h0A23,23,0,0,0,97,74H82V46ZM82,23A15,15,0,1,1,97,38H82ZM23,38A15,15,0,1,1,38,23V38ZM38,97A15,15,0,1,1,23,82H38ZM97,82A15,15,0,1,1,82,97V82ZM74,74H46V46H74Z"/></g></svg>