<svg xmlns="http://www.w3.org/2000/svg" viewBox="0 0 120 120"><defs><style>.cls-1{fill:#3c3c50;}</style></defs><title>Artboard 51</title><g id="Layer_15" data-name="Layer 15"><path class="cls-1" d="M119.39,51.5h0A61,61,0,0,0,118,44.7h0A60,60,0,0,0,2.7,42.16h0c-.26.84-.5,1.69-.73,2.55-.12.47-.23.95-.34,1.43s-.17.69-.24,1c-.14.64-.27,1.28-.39,1.93,0,.15-.05.31-.08.46A60.75,60.75,0,0,0,0,60a60,60,0,0,0,120,0A61.07,61.07,0,0,0,119.39,51.5ZM60,6a54.08,54.08,0,0,1,50.94,36.12l-.87-.33-4-1.47c-3.57-1.31-9.45-4.18-14.18-6.49-6.48-3.17-8.9-4.31-10.62-4.68A21,21,0,0,0,77,28.83c-1.08,0-2.32,0-3.63.06-1.51,0-3.22.06-4.94.06-2.71,0-4.94-.09-6.84-.26-2.38-.22-4.58-.63-6.72-1a50.59,50.59,0,0,0-9.35-1.12,26.76,26.76,0,0,0-5,.46c-4.55.86-9.66,3.27-15.57,6.07-3.84,1.81-7.81,3.68-11.72,5.15L10.1,39.37A54.08,54.08,0,0,1,60,6ZM7.66,46.7l7.62-2.86C25.16,40.13,35,34.13,41.57,32.9a20.29,20.29,0,0,1,3.9-.36c4.91,0,9.49,1.56,15.51,2.12,2.41.23,5,.29,7.4.29,3.26,0,6.32-.12,8.57-.12A17.93,17.93,0,0,1,80,35,34.87,34.87,0,0,1,65.92,39.6c-8.82,1.06-16.94.18-17.47,1.77s7.94,3.7,13.77,5.82S88.16,57.07,89.92,64s-11.64,4.42-20.29,4.24-29.12.88-43.41,12A74.57,74.57,0,0,1,13.82,88,54,54,0,0,1,7.66,46.7Z"/></g></svg>