<svg xmlns="http://www.w3.org/2000/svg" viewBox="0 0 120 120"><defs><style>.cls-1{fill:none;}.cls-2{fill:#3c3c50;}</style></defs><title>Artboard 24</title><g id="Layer_4" data-name="Layer 4"><rect class="cls-1" width="120" height="120"/><path class="cls-2" d="M113.61,48a10,10,0,0,0-9.81-8H70.91a10.73,10.73,0,0,1,3,5.57C75.46,52.35,79.27,71.22,81,80h39Zm-8.12,17.62-2.83,2.83L97,62.83l-5.66,5.66-2.83-2.83L94.17,60l-5.66-5.66,2.83-2.83L97,57.17l5.66-5.66,2.83,2.83L99.83,60ZM77,80H0L6.39,48a10,10,0,0,1,9.81-8H58.94c6.56.23,10.2,2.35,11.11,6.43C71.5,53,75.13,70.94,77,80Z"/></g></svg>