<svg xmlns="http://www.w3.org/2000/svg" viewBox="0 0 120 120"><defs><style>.cls-1{fill:#3c3c50;}</style></defs><title>Artboard 39</title><g id="Layer_9" data-name="Layer 9"><path class="cls-1" d="M30,65a36.06,36.06,0,0,0,.32,4.68A35,35,0,1,1,69.68,30.32,36.06,36.06,0,0,0,65,30,35,35,0,0,0,30,65ZM89.68,50.32A36.06,36.06,0,0,1,90,55,35,35,0,0,1,55,90a36.06,36.06,0,0,1-4.68-.32A35,35,0,1,0,89.68,50.32ZM80,45a36.06,36.06,0,0,0-.32-4.68A36.06,36.06,0,0,0,75,40,35,35,0,0,0,40,75a36.06,36.06,0,0,0,.32,4.68A36.06,36.06,0,0,0,45,80,35,35,0,0,0,80,45Z"/></g></svg>