<svg xmlns="http://www.w3.org/2000/svg" viewBox="0 0 120 120"><defs><style>.cls-1{fill:none;}.cls-2{fill:#3c3c50;}</style></defs><title>Artboard 1</title><g id="Layer_1" data-name="Layer 1"><rect class="cls-1" width="120" height="120"/><path class="cls-2" d="M119.68,14.12a19.18,19.18,0,0,1-.42,4.38,33.6,33.6,0,0,1-2,6.22,79.5,79.5,0,0,1-4.86,9.51c-3.35,5.84-6.89,11.19-10.29,16.56-1.69,2.69-3.42,5.33-5,8s-3.23,5.34-4.79,8a125.4,125.4,0,0,0-8.08,16.47,49.06,49.06,0,0,0-3.8,17.39,29,29,0,0,0,1.33,8.89,24.66,24.66,0,0,0,1.1,2.88C70.47,93,87,63.77,99.28,42c7-12.44,12.49-22.12,12-28h.7V8h-6v.93c-6.89.31-19,11.79-36.4,29.21C52.91,54.81,34.19,73.49,24,73.55V71H18.06a5.73,5.73,0,0,1-1.62-2.75C15,62.71,21.54,54.49,26.77,47.88c2.84-3.59,5.2-6.57,6.17-8.88H35V33H29v1.31c-6,.37-16.53,6.14-22.91,10,1.08-.94,2.17-1.88,3.29-2.78a97.19,97.19,0,0,1,8-5.84c1.42-.9,2.88-1.77,4.43-2.59A26.27,26.27,0,0,1,27.08,31a12.06,12.06,0,0,1,3.7-.46,8.1,8.1,0,0,1,2.78.64,6.3,6.3,0,0,1,.81.42,5,5,0,0,1,.8.56l.39.34A5.79,5.79,0,0,1,36,33a7,7,0,0,1,.79,1.21,6.83,6.83,0,0,1,.68,2.46,8,8,0,0,1-.06,1.82,10.86,10.86,0,0,1-.62,2.32,22.86,22.86,0,0,1-1.4,3c-1.88,3.31-3.74,5.91-5.53,8.56S26.45,57.49,25.1,60a28.16,28.16,0,0,0-1.7,3.54,8.46,8.46,0,0,0-.66,2.7c0,.3.05.47.1.48s.08-.14.05-.3-.09-.28-.05-.29.17,0,.43.16l.46.18.28.09.11,0-.06,0c-.16-.09-.24-.14-.18-.18s.82-.25,1.68-.65a33,33,0,0,0,6.29-3.91A149.67,149.67,0,0,0,45.28,49.91c4.46-4.31,8.9-8.79,13.33-13.37s9-9.12,13.64-13.69,9.46-9.1,14.94-13.5C88.58,8.26,90,7.17,91.57,6.1a47.31,47.31,0,0,1,5.22-3.17,28,28,0,0,1,3.42-1.48A18.23,18.23,0,0,1,105.12.39a14.51,14.51,0,0,1,3.52.18,13.48,13.48,0,0,1,4,1.43,13,13,0,0,1,3.39,2.69A13.13,13.13,0,0,1,118.27,8,14.78,14.78,0,0,1,119.68,14.12ZM83.58,114H82v6h6v-6H83.58ZM4.9,45H0v6H6V45H4.9Zm92.64-4c6.55-11.58,12.34-21.84,11.76-27H106V10.9c-6.53.24-21,14.66-35,28.66-17.67,17.64-35.88,35.81-47,36V77H18V73.5a8.28,8.28,0,0,1-3.5-4.75c-1.67-6.5,5.19-15.16,10.7-22.11A68.49,68.49,0,0,0,30.74,39H29V36.2c-4.58.36-14.15,5.16-22.22,10,4.49-1.69,9-3.32,13.38-4.65,1.26-.39,2.51-.72,3.74-1l-.51.56-3.23,3.53a101.35,101.35,0,0,0-6.6,7.85,43.94,43.94,0,0,0-3.07,4.82,23.79,23.79,0,0,0-2.44,6.37A16.48,16.48,0,0,0,7.71,68a14,14,0,0,0,1.17,4.92,15.16,15.16,0,0,0,2.8,4.21,18.76,18.76,0,0,0,3.37,2.77c.57.36,1.12.68,1.67,1l.81.4.44.21.62.25a15.53,15.53,0,0,0,4.9,1,21.87,21.87,0,0,0,7.72-1.11,48.73,48.73,0,0,0,10.63-5.2,94.44,94.44,0,0,0,8.55-6.09c2.68-2.1,5.25-4.25,7.77-6.43,5-4.38,9.72-8.88,14.39-13.35L86.23,37.13c3.27-3.24,6.57-6.43,9.85-9.38C95,30,93.88,32.21,92.76,34.5l-4.28,8.67c-1.45,2.91-2.8,5.9-4.16,8.9s-2.65,6.06-3.83,9.19a108.09,108.09,0,0,0-5.68,19.45c-1.18,6.72-1.57,13.86.13,20.69a30.09,30.09,0,0,0,4.11,9.48,26.54,26.54,0,0,0,2.16,2.76C68,93.24,84.92,63.31,97.54,41Z"/></g></svg>