<svg xmlns="http://www.w3.org/2000/svg" viewBox="0 0 120 120"><defs><style>.cls-1{fill:none;}.cls-2{fill:#3c3c50;}</style></defs><title>Artboard 52</title><g id="Layer_15" data-name="Layer 15"><rect class="cls-1" width="120" height="120"/><path class="cls-2" d="M90,38V82H30V38H90m6-6H24V88H96V32Zm16.93,19.51-2.83,2.83L113.76,58H100v4h13.76l-3.66,3.66,2.83,2.83L120,61.41V58.59ZM7.07,68.49,9.9,65.66,6.24,62H20V58H6.24L9.9,54.34,7.07,51.51,0,58.59v2.82ZM61.41,8H58.59l-7.08,7.07,2.83,2.83L58,14.24V28h4V14.24l3.66,3.66,2.83-2.83Zm7.08,96.93-2.83-2.83L62,105.76V92H58v13.76l-3.66-3.66-2.83,2.83L58.59,112h2.82Z"/></g></svg>