<svg xmlns="http://www.w3.org/2000/svg" viewBox="0 0 120 120"><defs><style>.cls-1{fill:none;}.cls-2{fill:#3c3c50;}</style></defs><title>Artboard 60</title><g id="Layer_17" data-name="Layer 17"><rect class="cls-1" width="120" height="120"/><path class="cls-2" d="M33,43a3,3,0,1,1-3,3A3,3,0,0,1,33,43Zm8.61-12.43a3,3,0,1,0-4.22.37A3,3,0,0,0,41.61,30.57Zm-9.8,5.17A3,3,0,1,0,35.65,34,3,3,0,0,0,31.81,35.74Zm24-13.38a3,3,0,1,0-3.47-2.43A3,3,0,0,0,55.83,22.36ZM48,25.22a3,3,0,1,0-4.1-1.1A3,3,0,0,0,48,25.22Zm-24.29,13a3,3,0,1,0,2.58,3.36A3,3,0,0,0,23.71,38.2ZM64.17,22.36a3,3,0,1,0-2.44-3.47A3,3,0,0,0,64.17,22.36Zm-35.35,3.5a3,3,0,1,0-.55-4.21A3,3,0,0,0,28.82,25.86Zm-5.9,22a3,3,0,1,0,3.37,2.58A3,3,0,0,0,22.92,47.86Zm1.75-13.25A3,3,0,1,0,23,30.69,3,3,0,0,0,24.67,34.61ZM17.8,25.1A3,3,0,1,0,16.7,21,3,3,0,0,0,17.8,25.1ZM97.08,47.86a3,3,0,1,0,2.58,3.36A3,3,0,0,0,97.08,47.86ZM91.41,33A3,3,0,1,0,93,29.07,3,3,0,0,0,91.41,33Zm8.25,7.79a3,3,0,1,0-2.58,3.36A3,3,0,0,0,99.66,40.78Zm2.84-6.17a3,3,0,1,0,2.12-3.67A3,3,0,0,0,102.5,34.61Zm-20,3.18A3,3,0,1,0,84.35,34,3,3,0,0,0,82.55,37.79Zm.06-6.85a3,3,0,1,0-4.22-.37A3,3,0,0,0,82.61,30.94ZM72,25.22a3,3,0,1,0-1.1-4.1A3,3,0,0,0,72,25.22Zm19.18.64A3,3,0,1,0,87,25.3,3,3,0,0,0,91.18,25.86ZM87,43a3,3,0,1,0,3,3A3,3,0,0,0,87,43Zm15.2-17.9A3,3,0,1,0,98.11,24,3,3,0,0,0,102.2,25.1Zm-11,41a3,3,0,1,0,.55,4.21A3,3,0,0,0,91.18,66.14Zm-3-9.88a3,3,0,1,0-3.84,1.79A3,3,0,0,0,88.19,56.26Zm-9.8,5.17a3,3,0,1,0,4.22-.37A3,3,0,0,0,78.39,61.43ZM72,66.78a3,3,0,1,0,4.1,1.1A3,3,0,0,0,72,66.78Zm-7.83,2.86a3,3,0,1,0,3.47,2.43A3,3,0,0,0,64.17,69.64Zm38-2.74a3,3,0,1,0,1.1,4.1A3,3,0,0,0,102.2,66.9ZM107,43a3,3,0,1,0,3,3A3,3,0,0,0,107,43ZM95.33,57.39A3,3,0,1,0,97,61.31,3,3,0,0,0,95.33,57.39Zm10.84-2.12a3,3,0,1,0,2.13,3.67A3,3,0,0,0,106.17,55.27ZM80,46A20,20,0,1,0,60,66,20,20,0,0,0,80,46ZM17.8,66.9A3,3,0,1,0,21.89,68,3,3,0,0,0,17.8,66.9Zm-.3-9.51a3,3,0,1,0-2.12,3.67A3,3,0,0,0,17.5,57.39ZM28.59,59A3,3,0,1,0,27,62.93,3,3,0,0,0,28.59,59ZM13.83,36.73a3,3,0,1,0-2.13-3.67A3,3,0,0,0,13.83,36.73Zm42,32.91a3,3,0,1,0,2.44,3.47A3,3,0,0,0,55.83,69.64ZM16,46a3,3,0,1,0-3,3A3,3,0,0,0,16,46ZM28.82,66.14A3,3,0,1,0,33,66.7,3,3,0,0,0,28.82,66.14ZM48,66.78a3,3,0,1,0,1.1,4.1A3,3,0,0,0,48,66.78ZM37.39,61.06a3,3,0,1,0,4.22.37A3,3,0,0,0,37.39,61.06Zm.06-6.85a3,3,0,1,0-1.8,3.84A3,3,0,0,0,37.45,54.21ZM74.77,103a3.07,3.07,0,0,1-1.12-1.89L72,92H48l-1.65,9.15A3.07,3.07,0,0,1,45.23,103l-5.06,5.59a.77.77,0,0,0,.48,1.37h38.7a.77.77,0,0,0,.48-1.37ZM120,13.85v70.3A3.86,3.86,0,0,1,116.15,88H3.85A3.86,3.86,0,0,1,0,84.15V13.85A3.86,3.86,0,0,1,3.85,10h112.3A3.86,3.86,0,0,1,120,13.85Zm-6,3.69A1.54,1.54,0,0,0,112.46,16h-27a3,3,0,1,1-5.83,0H40.39a3,3,0,1,1-5.83,0h-27A1.54,1.54,0,0,0,6,17.54V74.46A1.54,1.54,0,0,0,7.54,76h27a3,3,0,1,1,5.83,0H79.61a3,3,0,1,1,5.83,0h27A1.54,1.54,0,0,0,114,74.46Z"/></g></svg>