<svg xmlns="http://www.w3.org/2000/svg" viewBox="0 0 120 120"><defs><style>.cls-1{fill:#3c3c50;}</style></defs><title>Artboard 56</title><g id="Layer_16" data-name="Layer 16"><path class="cls-1" d="M101.67,90.7a7.28,7.28,0,0,1,.33,2.2H89.7a5.94,5.94,0,0,1,2.08-4.18,6.74,6.74,0,0,1,4.57-1.62,6.17,6.17,0,0,1,2.53.48,5,5,0,0,1,1.77,1.27A4.86,4.86,0,0,1,101.67,90.7ZM36.35,88.85a5,5,0,0,0-1.77-1.27,6.17,6.17,0,0,0-2.53-.48,6.74,6.74,0,0,0-4.57,1.62A6,6,0,0,0,25.4,92.9H37.7a7.6,7.6,0,0,0-.32-2.2A5,5,0,0,0,36.35,88.85ZM120,20v80a20,20,0,0,1-20,20H20A20,20,0,0,1,0,100V20A20,20,0,0,1,20,0h80A20,20,0,0,1,120,20ZM84,45.1a3.7,3.7,0,0,0,1.2,2.7,4.4,4.4,0,0,0,1.28.8,4,4,0,0,0,4.35-.85A3.72,3.72,0,0,0,92,45a3.51,3.51,0,0,0-1.2-2.7A4,4,0,0,0,88,41.2a3.86,3.86,0,0,0-2.82,1.15A3.69,3.69,0,0,0,84,45.1Zm-13,0a3.7,3.7,0,0,0,1.2,2.7,4.4,4.4,0,0,0,1.28.8,4,4,0,0,0,4.35-.85A3.72,3.72,0,0,0,79,45a3.51,3.51,0,0,0-1.2-2.7A4,4,0,0,0,75,41.2a3.86,3.86,0,0,0-2.82,1.15A3.69,3.69,0,0,0,71,45.1Zm-10.5,0a3.7,3.7,0,0,0,1.2,2.7,4.4,4.4,0,0,0,1.28.8,4,4,0,0,0,4.35-.85A3.72,3.72,0,0,0,68.5,45a3.51,3.51,0,0,0-1.2-2.7,4,4,0,0,0-2.8-1.1,3.86,3.86,0,0,0-2.82,1.15A3.69,3.69,0,0,0,60.5,45.1ZM21.7,37.2h4.55V56.4h6V37.2H37.8V32.4H32.25V28.5a11.82,11.82,0,0,1,.15-1.85A5.39,5.39,0,0,1,33,24.9a3.38,3.38,0,0,1,1.22-1.3,3.93,3.93,0,0,1,2.1-.5,7,7,0,0,1,1.23.1,9.92,9.92,0,0,1,1.07.25l.4-5.1a8.77,8.77,0,0,0-1.37-.28A15.8,15.8,0,0,0,36,18a10.9,10.9,0,0,0-4.65.87,7.9,7.9,0,0,0-3,2.38,9.29,9.29,0,0,0-1.6,3.47,17.49,17.49,0,0,0-.48,4.13V32.4H21.7ZM18,32.4H12v24h6Zm.85-8.15a3.36,3.36,0,0,0-1.12-2.58,4,4,0,0,0-2.78-1,3.69,3.69,0,0,0-2.72,1.07,3.46,3.46,0,0,0-1.08,2.53,3.42,3.42,0,0,0,1.08,2.52A3.66,3.66,0,0,0,15,27.85a4,4,0,0,0,2.78-1A3.32,3.32,0,0,0,18.85,24.25ZM43.7,95.6a16.83,16.83,0,0,0-.87-5.68,11.36,11.36,0,0,0-2.43-4,10,10,0,0,0-3.67-2.46,12.91,12.91,0,0,0-4.63-.82,13.58,13.58,0,0,0-5,.92,11.71,11.71,0,0,0-6.7,6.65,13.83,13.83,0,0,0-1,5.28,13.49,13.49,0,0,0,1,5.27,11.21,11.21,0,0,0,2.7,3.93,12,12,0,0,0,4.07,2.47,14.54,14.54,0,0,0,5.15.88q6.75,0,10.3-4.8l-4-3.2a7,7,0,0,1-2.55,2.27,7.88,7.88,0,0,1-3.8.83,7,7,0,0,1-2.5-.45,7.48,7.48,0,0,1-2.15-1.23,6,6,0,0,1-1.52-1.84,5.92,5.92,0,0,1-.68-2.38H43.65a5.37,5.37,0,0,0,.05-.8ZM55.6,69.5h-6v37.8h6ZM58,12H54.35a7.2,7.2,0,0,0-2.4.4,5.85,5.85,0,0,0-2.05,1.22,5.93,5.93,0,0,0-1.42,2.05A7.44,7.44,0,0,0,48,18.6v9.9a4,4,0,0,1-.35,1.75,2.92,2.92,0,0,1-.85,1.07,3,3,0,0,1-1.12.53A5,5,0,0,1,44.5,32v4.4a5,5,0,0,1,1.13.15,2.71,2.71,0,0,1,1.12.57,3.48,3.48,0,0,1,.85,1.18,4.69,4.69,0,0,1,.35,2V49.8a7.36,7.36,0,0,0,.53,2.92A5.8,5.8,0,0,0,52,56a7.2,7.2,0,0,0,2.4.4H58V52.2H55.25c-1,0-1.57-.32-1.82-1a5.54,5.54,0,0,1-.38-2V40.1a6.32,6.32,0,0,0-.55-2.85,5.63,5.63,0,0,0-1.3-1.75,4.75,4.75,0,0,0-1.6-.93,6.65,6.65,0,0,0-1.45-.32v-.1a5.08,5.08,0,0,0,1.45-.4,5.7,5.7,0,0,0,2.9-2.68,5.09,5.09,0,0,0,.55-2.47V19.2a5.54,5.54,0,0,1,.38-2.05c.25-.63.85-.95,1.82-.95H58Zm9,77.7a2.07,2.07,0,0,1,1.2-2,5.83,5.83,0,0,1,2.65-.6,6.15,6.15,0,0,1,3,.78,6.83,6.83,0,0,1,2.2,1.82L80,86.25A8.6,8.6,0,0,0,76,83.5,14.78,14.78,0,0,0,71,82.6a13.6,13.6,0,0,0-3.5.45,10,10,0,0,0-3,1.37,7.09,7.09,0,0,0-2.17,2.38,6.88,6.88,0,0,0-.83,3.45A6.13,6.13,0,0,0,62,93.1,5.64,5.64,0,0,0,63.6,95a8.37,8.37,0,0,0,2.28,1.25,19.29,19.29,0,0,0,2.62.78,22.41,22.41,0,0,1,4.13,1.3A2.22,2.22,0,0,1,74,100.5a2.51,2.51,0,0,1-.35,1.35,2.48,2.48,0,0,1-.92.87,4.5,4.5,0,0,1-1.25.48,6.16,6.16,0,0,1-1.33.15,7.42,7.42,0,0,1-3.55-.85,7.89,7.89,0,0,1-2.6-2.15l-4,3.7a11.44,11.44,0,0,0,4.4,2.92,14.85,14.85,0,0,0,5.45,1,16.85,16.85,0,0,0,3.78-.42,9.55,9.55,0,0,0,3.2-1.38,7,7,0,0,0,2.2-2.48A7.69,7.69,0,0,0,79.9,100a5.89,5.89,0,0,0-.7-3,6.63,6.63,0,0,0-1.82-2,9.94,9.94,0,0,0-2.5-1.32,22.66,22.66,0,0,0-2.73-.8,23.3,23.3,0,0,1-3.87-1.18A2,2,0,0,1,67,89.7ZM108,95.6a16.83,16.83,0,0,0-.87-5.68,11.5,11.5,0,0,0-2.43-4A10,10,0,0,0,101,83.42a12.91,12.91,0,0,0-4.63-.82,13.54,13.54,0,0,0-5,.92,12.11,12.11,0,0,0-4,2.6,12.29,12.29,0,0,0-2.68,4,14,14,0,0,0-1,5.28,13.68,13.68,0,0,0,1,5.27,11.23,11.23,0,0,0,2.71,3.93,12,12,0,0,0,4.07,2.47,14.5,14.5,0,0,0,5.15.88q6.75,0,10.3-4.8l-4-3.2a7.13,7.13,0,0,1-2.55,2.27,7.88,7.88,0,0,1-3.8.83,7,7,0,0,1-2.5-.45,7.48,7.48,0,0,1-2.15-1.23,6,6,0,0,1-1.52-1.84,5.92,5.92,0,0,1-.68-2.38H108a7.16,7.16,0,0,0,0-.8ZM108,32a4.72,4.72,0,0,1-1.15-.15,3,3,0,0,1-1.1-.53,2.92,2.92,0,0,1-.85-1.07,4,4,0,0,1-.35-1.75V18.6a7.45,7.45,0,0,0-.52-2.93,6.09,6.09,0,0,0-1.43-2.05,5.85,5.85,0,0,0-2-1.22,7.2,7.2,0,0,0-2.4-.4H94.5v4.2h2.75c1,0,1.58.32,1.83.95a5.53,5.53,0,0,1,.37,2.05v9.4a5.09,5.09,0,0,0,.55,2.47,5.7,5.7,0,0,0,2.9,2.68,5.08,5.08,0,0,0,1.45.4v.1a6.65,6.65,0,0,0-1.45.32,4.75,4.75,0,0,0-1.6.93,5.63,5.63,0,0,0-1.3,1.75,6.32,6.32,0,0,0-.55,2.85v9.1a5.53,5.53,0,0,1-.37,2c-.25.63-.86,1-1.83,1H94.5v4.2h3.65a7.2,7.2,0,0,0,2.4-.4,5.88,5.88,0,0,0,2-1.23A6,6,0,0,0,104,52.72a7.36,7.36,0,0,0,.52-2.92V40.25a4.69,4.69,0,0,1,.35-2,3.48,3.48,0,0,1,.85-1.18,2.7,2.7,0,0,1,1.1-.57A4.72,4.72,0,0,1,108,36.4Z"/></g></svg>