<svg xmlns="http://www.w3.org/2000/svg" viewBox="0 0 120 120"><defs><style>.cls-1{fill:#3c3c50;}</style></defs><g id="Layer_16" data-name="Layer 16"><path class="cls-1" d="M87,54a33,33,0,1,0,33,33A33,33,0,0,0,87,54ZM65,86h6A16,16,0,0,1,97.4,74.85l-3.76,4.69A10,10,0,0,0,77.05,86h6L74,96Zm38,2A16,16,0,0,1,76.34,98.91L80,94.17A10,10,0,0,0,96.94,88H92l8-10,8,10ZM38,34V12a2,2,0,0,1,2-2H56a2,2,0,0,1,2,2V34a2,2,0,0,1-2,2H40A2,2,0,0,1,38,34Zm24.68,86H20A20,20,0,0,1,0,100V20A20,20,0,0,1,20,0H98.76a3,3,0,0,1,2.12.88l18.24,18.24a3,3,0,0,1,.88,2.12v41.5a41.34,41.34,0,0,0-6-6.54V22.48L97.52,6H92V38a8,8,0,0,1-8,8H36a8,8,0,0,1-8-8V6H20A14,14,0,0,0,6,20v80a14,14,0,0,0,11,13.67V62a8,8,0,0,1,8-8H62.68a41.68,41.68,0,0,0-6.52,6H25a2,2,0,0,0-2,2v52H56.16A41.68,41.68,0,0,0,62.68,120ZM34,38a2,2,0,0,0,2,2H84a2,2,0,0,0,2-2V6H34Z"/></g></svg>