<?xml version="1.0" encoding="UTF-8"?>
<!DOCTYPE svg PUBLIC "-//W3C//DTD SVG 1.1//EN" "http://www.w3.org/Graphics/SVG/1.1/DTD/svg11.dtd">
<svg version="1.1" xmlns="http://www.w3.org/2000/svg" xmlns:xlink="http://www.w3.org/1999/xlink" x="0" y="0" width="60" height="60" viewBox="0, 0, 60, 60">
  <defs>
    <linearGradient id="Gradient_1" gradientUnits="userSpaceOnUse" x1="30" y1="8" x2="30" y2="52">
      <stop offset="0" stop-color="#FFFFFF"/>
      <stop offset="1" stop-color="#A9A9A9"/>
    </linearGradient>
  </defs>
  <g id="feature_shapelibs.svg" transform="translate(0, 0)">
    <path d="M12.583,8 L47.417,8 C49.948,8 52,10.052 52,12.583 L52,47.417 C52,49.948 49.948,52 47.417,52 L12.583,52 C10.052,52 8,49.948 8,47.417 L8,12.583 C8,10.052 10.052,8 12.583,8 z M20.674,31.704 C20.674,31.704 13.804,37.467 13.804,37.467 C13.804,37.467 16.262,45.101 16.262,45.1 C16.262,45.101 25.093,45.075 25.093,45.075 C25.093,45.075 27.633,37.467 27.633,37.466 C27.633,37.467 20.674,31.704 20.674,31.704 z M39.141,32.024 C39.141,32.024 31.919,45.02 31.919,45.02 C31.919,45.02 45.965,45.122 45.965,45.122 C45.965,45.122 39.141,32.024 39.141,32.024 z M43.228,14.866 L35.049,14.866 C33.828,14.866 32.769,15.814 32.769,16.983 L32.769,24.787 C32.769,25.957 33.828,26.904 35.049,26.904 L43.228,26.904 C44.449,26.904 45.439,25.957 45.439,24.787 L45.439,16.983 C45.439,15.814 44.449,14.866 43.228,14.866 z M20.832,27.322 C24.376,27.322 27.249,24.449 27.249,20.905 C27.249,17.361 24.376,14.489 20.832,14.489 C17.289,14.489 14.416,17.361 14.416,20.905 C14.416,24.449 17.289,27.322 20.832,27.322 z" fill="url(#Gradient_1)"/>
  </g>
</svg>
