<?xml version="1.0" encoding="UTF-8"?>
<!DOCTYPE svg PUBLIC "-//W3C//DTD SVG 1.1//EN" "http://www.w3.org/Graphics/SVG/1.1/DTD/svg11.dtd">
<svg version="1.1" xmlns="http://www.w3.org/2000/svg" xmlns:xlink="http://www.w3.org/1999/xlink" x="0" y="0" width="60" height="60" viewBox="0, 0, 60, 60">
  <defs>
    <linearGradient id="Gradient_1" gradientUnits="userSpaceOnUse" x1="32.048" y1="10" x2="32.048" y2="24.038">
      <stop offset="0" stop-color="#D9D9D9"/>
      <stop offset="1" stop-color="#808080"/>
    </linearGradient>
    <linearGradient id="Gradient_2" gradientUnits="userSpaceOnUse" x1="21.06" y1="16.143" x2="21.06" y2="52.625">
      <stop offset="0" stop-color="#FFFFFF"/>
      <stop offset="1" stop-color="#A9A9A9"/>
    </linearGradient>
    <linearGradient id="Gradient_3" gradientUnits="userSpaceOnUse" x1="51.011" y1="15.759" x2="51.011" y2="18.574">
      <stop offset="0" stop-color="#FFFFFF"/>
      <stop offset="1" stop-color="#A9A9A9"/>
    </linearGradient>
  </defs>
  <g id="feature_styles.svg" transform="translate(0, 0)">
    <path d="M46.247,10 C48.423,10 49.995,11.765 49.995,13.941 L50.022,15.759 L52,16.143 L52,18.19 L50.022,18.574 L49.995,20.098 C49.995,22.275 48.423,24.038 46.247,24.038 L16.034,24.038 C13.858,24.038 12.095,22.275 12.095,20.098 L12.133,18.19 L12.165,14.095 L12.159,13.941 C12.159,11.765 13.858,10 16.034,10 L46.247,10 z" fill="url(#Gradient_1)"/>
    <path d="M12.095,16.143 L11.357,16.143 C9.54,16.143 8,17.908 8,19.723 L8,26.71 C8,28.526 9.47,29.998 11.287,29.998 L27.926,29.979 L27.926,29.975 L29.263,29.975 C30.189,29.975 30.943,30.6 30.943,31.525 L30.943,32.149 L30.128,32.149 L28.976,32.661 L28.976,51.473 L30.128,52.625 L33.095,52.625 L34.119,51.473 L34.119,32.661 L33.095,32.149 L32.552,32.149 L32.552,31.525 C32.552,29.71 31.079,28.11 29.263,28.11 L27.271,28.179 L11.671,28.133 C10.746,28.133 9.993,27.379 9.993,26.454 L9.993,19.723 C9.993,18.798 10.816,18.19 11.741,18.19 L12.095,18.19" fill="url(#Gradient_2)"/>
    <path d="M50.022,15.759 L52,16.143 L52,18.19 L50.022,18.574" fill="url(#Gradient_3)"/>
  </g>
</svg>
