<?xml version="1.0" encoding="UTF-8"?>
<!DOCTYPE svg PUBLIC "-//W3C//DTD SVG 1.1//EN" "http://www.w3.org/Graphics/SVG/1.1/DTD/svg11.dtd">
<svg version="1.1" xmlns="http://www.w3.org/2000/svg" xmlns:xlink="http://www.w3.org/1999/xlink" x="0" y="0" width="60" height="60" viewBox="0, 0, 60, 60">
  <g id="feature_dimensions.svg" transform="translate(0, 0)">
    <g>
      <g>
        <path d="M8.112,50.631 L47.888,8.369" fill-opacity="0" stroke="#F2F2F2" stroke-width="1" stroke-dasharray="4,4"/>
        <path d="M7.298,47.118 L4.685,54.272 L11.668,51.23 M8.112,50.631 L4.685,54.272 M0.359,51.573 L7.641,58.427" fill-opacity="0" stroke="#F2F2F2" stroke-width="1" stroke-opacity="1"/>
        <path d="M48.702,11.882 L51.315,4.728 L44.332,7.77 M47.888,8.369 L51.315,4.728 M55.641,7.427 L48.359,0.573" fill-opacity="0" stroke="#F2F2F2" stroke-width="1" stroke-opacity="1"/>
      </g>
      <g>
        <path d="M25.063,44.293 L42.588,25.672 C44.102,24.064 46.634,23.987 48.243,25.501 L53.465,30.416 C55.074,31.93 55.151,34.462 53.637,36.071 L36.111,54.692 C34.597,56.3 32.065,56.377 30.457,54.863 L25.234,49.948 C23.625,48.434 23.549,45.902 25.063,44.293 z" fill="#E0E0E0"/>
        <text fill="#000000" transform="matrix(0.685, -0.728, 0.728, 0.685, 39.35, 40.182)">
          <tspan x="-12.786" y="3.467" font-family="Arial-BoldMT" font-size="10">70 px</tspan>
        </text>
      </g>
    </g>
  </g>
</svg>
