<svg xmlns="http://www.w3.org/2000/svg" viewBox="0 0 120 120"><defs><style>.cls-1{fill:#a0a5c8;}</style></defs><title>Artboard 49</title><g id="Layer_14" data-name="Layer 14"><path class="cls-1" d="M100,0H20A20,20,0,0,0,0,20v80a20,20,0,0,0,20,20h80a20,20,0,0,0,20-20V20A20,20,0,0,0,100,0ZM87.4,45.93l0,1.83C87.44,66.45,73.22,88,47.21,88a40,40,0,0,1-21.68-6.36,31.28,31.28,0,0,0,3.37.19,28.39,28.39,0,0,0,17.57-6A14.15,14.15,0,0,1,33.26,66a13,13,0,0,0,2.66.27,14.35,14.35,0,0,0,3.73-.5A14.16,14.16,0,0,1,28.3,51.86v-.17a14.06,14.06,0,0,0,6.41,1.77,14.17,14.17,0,0,1-4.38-18.88A40.16,40.16,0,0,0,59.48,49.36a14.15,14.15,0,0,1,24.1-12.89,28.62,28.62,0,0,0,9-3.44,14.2,14.2,0,0,1-6.22,7.82,28.38,28.38,0,0,0,8.12-2.22A28.2,28.2,0,0,1,87.4,45.93Z"/></g></svg>