<svg xmlns="http://www.w3.org/2000/svg" viewBox="0 0 120 120"><defs><style>.cls-1{fill:#3c3c50;}</style></defs><title>Artboard 37</title><g id="Layer_8" data-name="Layer 8"><path class="cls-1" d="M33,105l-18.07,3.93L23,117l-3,3L0,100l3-3,8.07,8.07L15,87l4,3-2.72,10.9L27.8,89.37l2.83,2.83L19.1,103.72,30,101ZM48.32,68.85l2.83,2.83L58,64.83,55.17,62ZM34.64,82.53l2.83,2.83,6.84-6.84-2.83-2.83ZM100,0,97,3l8.07,8.07L87,15l3,4,10.9-2.72L89.37,27.8l2.83,2.83L103.72,19.1,101,30l4,3,3.93-18.07L117,23l3-3ZM62,55.17,64.83,58l6.84-6.84-2.82-2.82ZM75.69,41.48l2.83,2.83,6.84-6.84-2.83-2.83Zm2.2,41.89a2.06,2.06,0,0,1,.27.94,1.14,1.14,0,0,1-.38.87,1.12,1.12,0,0,1-.87.38,2.35,2.35,0,0,1-.94-.27,4.7,4.7,0,0,1-.87-.61,12.53,12.53,0,0,1-1.33-1.33,4.7,4.7,0,0,1-.61-.87,2.24,2.24,0,0,1-.27-.94,1.3,1.3,0,0,1,1.25-1.25,2.18,2.18,0,0,1,.94.26,5.13,5.13,0,0,1,.88.61c.27.25.5.46.68.64s.4.42.64.69A4.33,4.33,0,0,1,77.89,83.37Zm-9.14,2.26a1.23,1.23,0,0,0-.85.4,1.22,1.22,0,0,0-.39.85,1,1,0,0,0,.3.78,1,1,0,0,0,.8.32,1.23,1.23,0,0,0,.85-.4,1.2,1.2,0,0,0,.39-.85,1,1,0,0,0-.31-.79A1.06,1.06,0,0,0,68.75,85.63Zm2.87,2.69a1.37,1.37,0,0,0-1,.45,1.4,1.4,0,0,0-.46,1,1.19,1.19,0,0,0,.37.9,1.14,1.14,0,0,0,.89.36,1.4,1.4,0,0,0,1-.46,1.37,1.37,0,0,0,.45-1,1.21,1.21,0,0,0-1.25-1.25ZM84.71,74.17a1.64,1.64,0,0,0-1.21.54A1.6,1.6,0,0,0,83,75.93a1.7,1.7,0,0,0,.57,1.19,1.78,1.78,0,0,0,1.19.57,1.85,1.85,0,0,0,1.75-1.75,1.83,1.83,0,0,0-.57-1.2A1.78,1.78,0,0,0,84.71,74.17Zm17.79,0L74.21,102.5a5,5,0,0,1-7.07,0L56.54,91.89a5,5,0,0,1,0-7.07L84.82,56.54a5,5,0,0,1,7.07,0l10.61,10.6A5,5,0,0,1,102.5,74.21ZM74.9,88.5a2.58,2.58,0,0,0-.69-1.09,2.32,2.32,0,0,0-3-.4l0,0a2.33,2.33,0,0,0,.3-1.45,2.14,2.14,0,0,0-.67-1.29,2.46,2.46,0,0,0-2.14-.76,3.14,3.14,0,0,0-1.1.38,4.79,4.79,0,0,0-1,.79,4.64,4.64,0,0,0-.79,1,3.08,3.08,0,0,0-.39,1.11,2.45,2.45,0,0,0,.1,1.11,2.66,2.66,0,0,0,.66,1,2.22,2.22,0,0,0,1.29.67,2.39,2.39,0,0,0,1.45-.3l0,0a2.44,2.44,0,0,0-.36,1.58,2.49,2.49,0,0,0,.76,1.43,2.72,2.72,0,0,0,1.09.68,2.55,2.55,0,0,0,1.19.1,3.51,3.51,0,0,0,1.16-.41,4.91,4.91,0,0,0,1.87-1.86,3.46,3.46,0,0,0,.4-1.17A2.63,2.63,0,0,0,74.9,88.5ZM80,83.27a5,5,0,0,0-.76-1.57,9.79,9.79,0,0,0-1.15-1.38,10.26,10.26,0,0,0-1.38-1.15,5.25,5.25,0,0,0-1.58-.77,3.54,3.54,0,0,0-1.65-.06,3.3,3.3,0,0,0-1.62,1,3.2,3.2,0,0,0-1,1.62A3.29,3.29,0,0,0,71,82.57a5.06,5.06,0,0,0,.76,1.57,10.49,10.49,0,0,0,1.15,1.39,11.07,11.07,0,0,0,1.38,1.15,5.22,5.22,0,0,0,1.58.76,3.29,3.29,0,0,0,1.65.06,3.77,3.77,0,0,0,2.57-2.57A3.34,3.34,0,0,0,80,83.27Zm8.5-7.68a3.91,3.91,0,0,0-.38-1.25,4.63,4.63,0,0,0-.81-1.12,4.26,4.26,0,0,0-1.17-.83,3.43,3.43,0,0,0-1.27-.31,3.23,3.23,0,0,0-1.26.23,3.59,3.59,0,0,0-1.15.79,2.22,2.22,0,0,0-.42.56,2.29,2.29,0,0,0-.24.59,2.62,2.62,0,0,0-.1.58,3.73,3.73,0,0,0,0,.5l0,0-.63-.64-1.37,1.37,7.07,7.07,1.49-1.49-2.77-2.77v0a1.89,1.89,0,0,0,1.15-.17,3.47,3.47,0,0,0,1-.72,2.7,2.7,0,0,0,.71-1.13A3,3,0,0,0,88.54,75.59Zm6.69-5.36-4.43-.72-.67-3.8-1.65,1.65L89,69.49,86.8,69l-1.75,1.76,3.84.63.67,4.47,1.74-1.73-.48-2.73,2.65.55Z"/></g></svg>