<svg xmlns="http://www.w3.org/2000/svg" viewBox="0 0 120 120"><defs><style>.cls-1{fill:#3c3c50;}</style></defs><title>Artboard 36</title><g id="Layer_8" data-name="Layer 8"><path class="cls-1" d="M30,90H0V88H30Zm0-42H22v2h8Zm0,10H22v2h8Zm0,10H22v2h8Zm0,10H22v2h8Zm0,20H22v2h8Zm0,10H22v2h8Zm0,10H22v2h8Zm0-80H15v2H30Zm60-8V0H88V30ZM50,30V22H48v8Zm10,0V22H58v8Zm10,0V22H68v8Zm10,0V22H78v8Zm20,0V22H98v8Zm10,0V22h-2v8Zm10,0V22h-2v8ZM40,30V15H38V30ZM30,0H0V30H30ZM83,13a4,4,0,1,1-6.38-3.2A3,3,0,0,1,76,8a3,3,0,0,1,6,0,3,3,0,0,1-.62,1.8A4,4,0,0,1,83,13ZM79,9a1,1,0,1,0-1-1A1,1,0,0,0,79,9Zm2,4a2,2,0,1,0-2,2A2,2,0,0,0,81,13ZM15,77a4,4,0,1,1-6.38-3.2A3,3,0,0,1,8,72a3,3,0,0,1,6,0,3,3,0,0,1-.62,1.8A4,4,0,0,1,15,77Zm-4-4a1,1,0,1,0-1-1A1,1,0,0,0,11,73Zm2,4a2,2,0,1,0-2,2A2,2,0,0,0,13,77Z"/></g></svg>