<svg xmlns="http://www.w3.org/2000/svg" viewBox="0 0 120 120"><defs><style>.cls-1{fill:#3c3c50;}</style></defs><title>Artboard 33</title><g id="Layer_7" data-name="Layer 7"><path class="cls-1" d="M118,16h-3V10A10,10,0,0,0,105,0H22A10,10,0,0,0,12,10v7H7a7,7,0,0,0-7,7V49a7,7,0,0,0,7,7H60a3,3,0,0,1,3,3v4H59a2,2,0,0,0-2,2v51a4,4,0,0,0,4,4h8a4,4,0,0,0,4-4V65a2,2,0,0,0-2-2H67V59a7,7,0,0,0-7-7H7a3,3,0,0,1-3-3V24a3,3,0,0,1,3-3h5v7A10,10,0,0,0,22,38h83a10,10,0,0,0,10-10V22h3a2,2,0,0,0,2-2V18A2,2,0,0,0,118,16Z"/></g></svg>