<svg xmlns="http://www.w3.org/2000/svg" viewBox="0 0 120 120"><defs><style>.cls-1{fill:#3c3c50;}</style></defs><title>Artboard 42</title><g id="Layer_10" data-name="Layer 10"><path class="cls-1" d="M59,98h2v4H59Zm2-48H59v4h2Zm-2,60h2v-4H59Zm0-16h2V90H59Zm0-8h2V82H59Zm2-60H59v4h2Zm0-16H59v4h2Zm0,8H59v4h2Zm0,16H59v4h2Zm0,8H59v4h2ZM59,78h2V74H59Zm2-20H59v1H58v2h1v1h2V61h1V59H61ZM59,70h2V66H59Zm51-11h-4v2h4Zm-8,0H98v2h4ZM90,61h4V59H90ZM18,61h4V59H18Zm-8,0h4V59H10Zm72,0h4V59H82ZM50,61h4V59H50Zm-8,0h4V59H42Zm24,0h4V59H66ZM26,61h4V59H26Zm8,0h4V59H34Zm40,0h4V59H74Zm46-1A60,60,0,1,1,60,0,60,60,0,0,1,120,60Zm-8,0a52,52,0,1,0-52,52A52.06,52.06,0,0,0,112,60Z"/></g></svg>