<?xml version="1.0" encoding="UTF-8"?>
<!DOCTYPE svg PUBLIC "-//W3C//DTD SVG 1.1//EN" "http://www.w3.org/Graphics/SVG/1.1/DTD/svg11.dtd">
<svg version="1.1" xmlns="http://www.w3.org/2000/svg" xmlns:xlink="http://www.w3.org/1999/xlink" x="0" y="0" width="248" height="49" viewBox="0, 0, 248, 49">
  <g id="Layer_1">
    <path d="M56.389,6.672 L60.277,6.672 Q61.365,6.672 62.453,6.992 Q63.541,7.312 64.421,8 Q65.301,8.688 65.845,9.76 Q66.389,10.832 66.389,12.336 Q66.389,13.792 65.845,14.856 Q65.301,15.92 64.421,16.616 Q63.541,17.312 62.453,17.656 Q61.365,18 60.277,18 L56.389,18 z M57.973,16.608 L59.957,16.608 Q60.981,16.608 61.853,16.32 Q62.725,16.032 63.357,15.488 Q63.989,14.944 64.341,14.144 Q64.693,13.344 64.693,12.336 Q64.693,11.28 64.341,10.48 Q63.989,9.68 63.357,9.144 Q62.725,8.608 61.853,8.328 Q60.981,8.048 59.957,8.048 L57.973,8.048 z" fill="#FFFFFF"/>
    <path d="M76.165,14.192 Q76.165,15.072 75.853,15.808 Q75.541,16.544 74.989,17.08 Q74.437,17.616 73.685,17.912 Q72.933,18.208 72.069,18.208 Q71.205,18.208 70.453,17.912 Q69.701,17.616 69.157,17.08 Q68.613,16.544 68.301,15.808 Q67.989,15.072 67.989,14.192 Q67.989,13.312 68.301,12.584 Q68.613,11.856 69.157,11.328 Q69.701,10.8 70.453,10.504 Q71.205,10.208 72.069,10.208 Q72.933,10.208 73.685,10.504 Q74.437,10.8 74.989,11.328 Q75.541,11.856 75.853,12.584 Q76.165,13.312 76.165,14.192 z M74.597,14.192 Q74.597,13.648 74.429,13.152 Q74.261,12.656 73.941,12.28 Q73.621,11.904 73.149,11.68 Q72.677,11.456 72.069,11.456 Q71.461,11.456 70.989,11.68 Q70.517,11.904 70.197,12.28 Q69.877,12.656 69.709,13.152 Q69.541,13.648 69.541,14.192 Q69.541,14.736 69.709,15.232 Q69.877,15.728 70.197,16.112 Q70.517,16.496 70.989,16.72 Q71.461,16.944 72.069,16.944 Q72.677,16.944 73.149,16.72 Q73.621,16.496 73.941,16.112 Q74.261,15.728 74.429,15.232 Q74.597,14.736 74.597,14.192 z" fill="#FFFFFF"/>
    <path d="M78.805,10.416 L80.517,16.208 L80.549,16.208 L82.357,10.416 L83.941,10.416 L85.781,16.208 L85.813,16.208 L87.525,10.416 L89.109,10.416 L86.597,18 L85.029,18 L83.157,12.304 L83.125,12.304 L81.269,18 L79.701,18 L77.173,10.416 z" fill="#FFFFFF"/>
    <path d="M91.973,10.416 Q92.005,10.704 92.021,11.064 Q92.037,11.424 92.037,11.664 L92.085,11.664 Q92.229,11.36 92.477,11.096 Q92.725,10.832 93.045,10.632 Q93.365,10.432 93.749,10.32 Q94.133,10.208 94.549,10.208 Q95.285,10.208 95.813,10.456 Q96.341,10.704 96.693,11.12 Q97.045,11.536 97.213,12.096 Q97.381,12.656 97.381,13.296 L97.381,18 L95.877,18 L95.877,13.792 Q95.877,13.328 95.805,12.912 Q95.733,12.496 95.541,12.176 Q95.349,11.856 95.013,11.664 Q94.677,11.472 94.149,11.472 Q93.253,11.472 92.685,12.152 Q92.117,12.832 92.117,13.968 L92.117,18 L90.613,18 L90.613,12.048 Q90.613,11.744 90.597,11.264 Q90.581,10.784 90.549,10.416 z" fill="#FFFFFF"/>
    <path d="M101.461,18 L99.957,18 L99.957,5.904 L101.461,5.904 z" fill="#FFFFFF"/>
    <path d="M111.765,14.192 Q111.765,15.072 111.453,15.808 Q111.141,16.544 110.589,17.08 Q110.037,17.616 109.285,17.912 Q108.533,18.208 107.669,18.208 Q106.805,18.208 106.053,17.912 Q105.301,17.616 104.757,17.08 Q104.213,16.544 103.901,15.808 Q103.589,15.072 103.589,14.192 Q103.589,13.312 103.901,12.584 Q104.213,11.856 104.757,11.328 Q105.301,10.8 106.053,10.504 Q106.805,10.208 107.669,10.208 Q108.533,10.208 109.285,10.504 Q110.037,10.8 110.589,11.328 Q111.141,11.856 111.453,12.584 Q111.765,13.312 111.765,14.192 z M110.197,14.192 Q110.197,13.648 110.029,13.152 Q109.861,12.656 109.541,12.28 Q109.221,11.904 108.749,11.68 Q108.277,11.456 107.669,11.456 Q107.061,11.456 106.589,11.68 Q106.117,11.904 105.797,12.28 Q105.477,12.656 105.309,13.152 Q105.141,13.648 105.141,14.192 Q105.141,14.736 105.309,15.232 Q105.477,15.728 105.797,16.112 Q106.117,16.496 106.589,16.72 Q107.061,16.944 107.669,16.944 Q108.277,16.944 108.749,16.72 Q109.221,16.496 109.541,16.112 Q109.861,15.728 110.029,15.232 Q110.197,14.736 110.197,14.192 z" fill="#FFFFFF"/>
    <path d="M118.565,13.088 Q118.565,12.24 118.053,11.832 Q117.541,11.424 116.693,11.424 Q116.053,11.424 115.485,11.672 Q114.917,11.92 114.533,12.304 L113.733,11.344 Q114.293,10.816 115.101,10.512 Q115.909,10.208 116.837,10.208 Q117.653,10.208 118.253,10.44 Q118.853,10.672 119.237,11.072 Q119.621,11.472 119.813,12.016 Q120.005,12.56 120.005,13.184 L120.005,16.496 Q120.005,16.88 120.029,17.304 Q120.053,17.728 120.117,18 L118.757,18 Q118.629,17.456 118.629,16.912 L118.581,16.912 Q118.165,17.52 117.533,17.856 Q116.901,18.192 116.037,18.192 Q115.589,18.192 115.101,18.072 Q114.613,17.952 114.213,17.68 Q113.813,17.408 113.549,16.96 Q113.285,16.512 113.285,15.856 Q113.285,14.992 113.749,14.488 Q114.213,13.984 114.965,13.72 Q115.717,13.456 116.661,13.376 Q117.605,13.296 118.565,13.296 z M118.197,14.384 Q117.637,14.384 117.037,14.432 Q116.437,14.48 115.949,14.624 Q115.461,14.768 115.141,15.056 Q114.821,15.344 114.821,15.824 Q114.821,16.16 114.957,16.384 Q115.093,16.608 115.317,16.752 Q115.541,16.896 115.813,16.952 Q116.085,17.008 116.373,17.008 Q117.429,17.008 117.997,16.376 Q118.565,15.744 118.565,14.784 L118.565,14.384 z" fill="#FFFFFF"/>
    <path d="M128.565,16.8 Q128.133,17.488 127.389,17.848 Q126.645,18.208 125.829,18.208 Q124.949,18.208 124.245,17.896 Q123.541,17.584 123.045,17.04 Q122.549,16.496 122.277,15.76 Q122.005,15.024 122.005,14.192 Q122.005,13.36 122.277,12.632 Q122.549,11.904 123.053,11.36 Q123.557,10.816 124.261,10.512 Q124.965,10.208 125.813,10.208 Q126.741,10.208 127.429,10.6 Q128.117,10.992 128.517,11.552 L128.549,11.552 L128.549,5.904 L130.053,5.904 L130.053,18 L128.597,18 L128.597,16.8 z M123.573,14.192 Q123.573,14.72 123.733,15.216 Q123.893,15.712 124.213,16.096 Q124.533,16.48 124.997,16.712 Q125.461,16.944 126.085,16.944 Q126.661,16.944 127.133,16.72 Q127.605,16.496 127.941,16.12 Q128.277,15.744 128.461,15.248 Q128.645,14.752 128.645,14.208 Q128.645,13.664 128.461,13.168 Q128.277,12.672 127.941,12.288 Q127.605,11.904 127.133,11.68 Q126.661,11.456 126.085,11.456 Q125.461,11.456 124.997,11.68 Q124.533,11.904 124.213,12.288 Q123.893,12.672 123.733,13.168 Q123.573,13.664 123.573,14.192 z" fill="#FFFFFF"/>
    <path d="M138.197,18 L136.693,18 L136.693,10.416 L138.197,10.416 z M138.453,7.68 Q138.453,8.096 138.157,8.368 Q137.861,8.64 137.445,8.64 Q137.029,8.64 136.741,8.36 Q136.453,8.08 136.453,7.68 Q136.453,7.264 136.741,6.984 Q137.029,6.704 137.445,6.704 Q137.861,6.704 138.157,6.984 Q138.453,7.264 138.453,7.68 z" fill="#FFFFFF"/>
    <path d="M140.901,6.672 L144.789,6.672 Q145.877,6.672 146.965,6.992 Q148.053,7.312 148.933,8 Q149.813,8.688 150.357,9.76 Q150.901,10.832 150.901,12.336 Q150.901,13.792 150.357,14.856 Q149.813,15.92 148.933,16.616 Q148.053,17.312 146.965,17.656 Q145.877,18 144.789,18 L140.901,18 z M142.485,16.608 L144.469,16.608 Q145.493,16.608 146.365,16.32 Q147.237,16.032 147.869,15.488 Q148.501,14.944 148.853,14.144 Q149.205,13.344 149.205,12.336 Q149.205,11.28 148.853,10.48 Q148.501,9.68 147.869,9.144 Q147.237,8.608 146.365,8.328 Q145.493,8.048 144.469,8.048 L142.485,8.048 z" fill="#FFFFFF"/>
    <path d="M152.997,12.048 Q152.997,11.744 152.981,11.264 Q152.965,10.784 152.933,10.416 L154.357,10.416 Q154.389,10.704 154.405,11.08 Q154.421,11.456 154.421,11.696 L154.469,11.696 Q154.789,11.024 155.405,10.616 Q156.021,10.208 156.789,10.208 Q157.141,10.208 157.381,10.272 L157.317,11.664 Q156.997,11.584 156.629,11.584 Q156.085,11.584 155.685,11.784 Q155.285,11.984 155.021,12.32 Q154.757,12.656 154.629,13.096 Q154.501,13.536 154.501,14.016 L154.501,18 L152.997,18 z" fill="#FFFFFF"/>
    <path d="M163.301,13.088 Q163.301,12.24 162.789,11.832 Q162.277,11.424 161.429,11.424 Q160.789,11.424 160.221,11.672 Q159.653,11.92 159.269,12.304 L158.469,11.344 Q159.029,10.816 159.837,10.512 Q160.645,10.208 161.573,10.208 Q162.389,10.208 162.989,10.44 Q163.589,10.672 163.973,11.072 Q164.357,11.472 164.549,12.016 Q164.741,12.56 164.741,13.184 L164.741,16.496 Q164.741,16.88 164.765,17.304 Q164.789,17.728 164.853,18 L163.493,18 Q163.365,17.456 163.365,16.912 L163.317,16.912 Q162.901,17.52 162.269,17.856 Q161.637,18.192 160.773,18.192 Q160.325,18.192 159.837,18.072 Q159.349,17.952 158.949,17.68 Q158.549,17.408 158.285,16.96 Q158.021,16.512 158.021,15.856 Q158.021,14.992 158.485,14.488 Q158.949,13.984 159.701,13.72 Q160.453,13.456 161.397,13.376 Q162.341,13.296 163.301,13.296 z M162.933,14.384 Q162.373,14.384 161.773,14.432 Q161.173,14.48 160.685,14.624 Q160.197,14.768 159.877,15.056 Q159.557,15.344 159.557,15.824 Q159.557,16.16 159.693,16.384 Q159.829,16.608 160.053,16.752 Q160.277,16.896 160.549,16.952 Q160.821,17.008 161.109,17.008 Q162.165,17.008 162.733,16.376 Q163.301,15.744 163.301,14.784 L163.301,14.384 z" fill="#FFFFFF"/>
    <path d="M167.813,10.416 L169.525,16.208 L169.557,16.208 L171.365,10.416 L172.949,10.416 L174.789,16.208 L174.821,16.208 L176.533,10.416 L178.117,10.416 L175.605,18 L174.037,18 L172.165,12.304 L172.133,12.304 L170.277,18 L168.709,18 L166.181,10.416 z" fill="#FFFFFF"/>
    <path d="M187.189,11.648 L185.429,11.648 L185.429,18 L183.925,18 L183.925,11.648 L182.421,11.648 L182.421,10.416 L183.925,10.416 L183.925,8.832 Q183.925,8.16 184.077,7.592 Q184.229,7.024 184.573,6.608 Q184.917,6.192 185.453,5.952 Q185.989,5.712 186.757,5.712 Q187.301,5.712 187.701,5.824 L187.525,7.12 Q187.349,7.072 187.173,7.04 Q186.997,7.008 186.773,7.008 Q186.341,7.008 186.077,7.16 Q185.813,7.312 185.669,7.568 Q185.525,7.824 185.477,8.152 Q185.429,8.48 185.429,8.832 L185.429,10.416 L187.189,10.416 z" fill="#FFFFFF"/>
    <path d="M188.581,12.048 Q188.581,11.744 188.565,11.264 Q188.549,10.784 188.517,10.416 L189.941,10.416 Q189.973,10.704 189.989,11.08 Q190.005,11.456 190.005,11.696 L190.053,11.696 Q190.373,11.024 190.989,10.616 Q191.605,10.208 192.373,10.208 Q192.725,10.208 192.965,10.272 L192.901,11.664 Q192.581,11.584 192.213,11.584 Q191.669,11.584 191.269,11.784 Q190.869,11.984 190.605,12.32 Q190.341,12.656 190.213,13.096 Q190.085,13.536 190.085,14.016 L190.085,18 L188.581,18 z" fill="#FFFFFF"/>
    <path d="M201.765,14.192 Q201.765,15.072 201.453,15.808 Q201.141,16.544 200.589,17.08 Q200.037,17.616 199.285,17.912 Q198.533,18.208 197.669,18.208 Q196.805,18.208 196.053,17.912 Q195.301,17.616 194.757,17.08 Q194.213,16.544 193.901,15.808 Q193.589,15.072 193.589,14.192 Q193.589,13.312 193.901,12.584 Q194.213,11.856 194.757,11.328 Q195.301,10.8 196.053,10.504 Q196.805,10.208 197.669,10.208 Q198.533,10.208 199.285,10.504 Q200.037,10.8 200.589,11.328 Q201.141,11.856 201.453,12.584 Q201.765,13.312 201.765,14.192 z M200.197,14.192 Q200.197,13.648 200.029,13.152 Q199.861,12.656 199.541,12.28 Q199.221,11.904 198.749,11.68 Q198.277,11.456 197.669,11.456 Q197.061,11.456 196.589,11.68 Q196.117,11.904 195.797,12.28 Q195.477,12.656 195.309,13.152 Q195.141,13.648 195.141,14.192 Q195.141,14.736 195.309,15.232 Q195.477,15.728 195.797,16.112 Q196.117,16.496 196.589,16.72 Q197.061,16.944 197.669,16.944 Q198.277,16.944 198.749,16.72 Q199.221,16.496 199.541,16.112 Q199.861,15.728 200.029,15.232 Q200.197,14.736 200.197,14.192 z" fill="#FFFFFF"/>
    <path d="M205.317,11.664 Q205.605,11.056 206.237,10.632 Q206.869,10.208 207.733,10.208 Q208.501,10.208 209.117,10.56 Q209.733,10.912 210.085,11.728 Q210.469,10.992 211.157,10.6 Q211.845,10.208 212.661,10.208 Q213.397,10.208 213.925,10.456 Q214.453,10.704 214.805,11.12 Q215.157,11.536 215.325,12.096 Q215.493,12.656 215.493,13.296 L215.493,18 L213.989,18 L213.989,13.792 Q213.989,13.328 213.909,12.912 Q213.829,12.496 213.637,12.176 Q213.445,11.856 213.125,11.664 Q212.805,11.472 212.309,11.472 Q211.797,11.472 211.429,11.688 Q211.061,11.904 210.829,12.248 Q210.597,12.592 210.493,13.024 Q210.389,13.456 210.389,13.904 L210.389,18 L208.885,18 L208.885,13.488 Q208.885,13.04 208.805,12.672 Q208.725,12.304 208.533,12.04 Q208.341,11.776 208.037,11.624 Q207.733,11.472 207.285,11.472 Q206.453,11.472 205.901,12.152 Q205.349,12.832 205.349,13.968 L205.349,18 L203.845,18 L203.845,12.048 Q203.845,11.744 203.829,11.264 Q203.813,10.784 203.781,10.416 L205.205,10.416 Q205.237,10.704 205.253,11.064 Q205.269,11.424 205.269,11.664 z" fill="#FFFFFF"/>
    <path d="M225.749,11.648 L223.733,11.648 L223.733,15.6 Q223.733,16.288 223.989,16.584 Q224.245,16.88 224.805,16.88 Q225.013,16.88 225.253,16.832 Q225.493,16.784 225.685,16.688 L225.733,17.92 Q225.461,18.016 225.133,18.072 Q224.805,18.128 224.453,18.128 Q223.381,18.128 222.813,17.536 Q222.245,16.944 222.245,15.76 L222.245,11.648 L220.789,11.648 L220.789,10.416 L222.245,10.416 L222.245,8.24 L223.733,8.24 L223.733,10.416 L225.749,10.416 z" fill="#FFFFFF"/>
    <path d="M228.869,11.568 Q229.141,11.008 229.797,10.608 Q230.453,10.208 231.269,10.208 Q232.005,10.208 232.533,10.456 Q233.061,10.704 233.413,11.12 Q233.765,11.536 233.933,12.096 Q234.101,12.656 234.101,13.296 L234.101,18 L232.597,18 L232.597,13.808 Q232.597,13.344 232.525,12.928 Q232.453,12.512 232.261,12.192 Q232.069,11.872 231.741,11.68 Q231.413,11.488 230.885,11.488 Q229.989,11.488 229.413,12.168 Q228.837,12.848 228.837,13.984 L228.837,18 L227.333,18 L227.333,5.904 L228.837,5.904 L228.837,11.568 z" fill="#FFFFFF"/>
    <path d="M242.197,13.536 Q242.181,13.088 242.045,12.696 Q241.909,12.304 241.645,12.016 Q241.381,11.728 240.989,11.56 Q240.597,11.392 240.069,11.392 Q239.589,11.392 239.165,11.56 Q238.741,11.728 238.429,12.016 Q238.117,12.304 237.917,12.696 Q237.717,13.088 237.685,13.536 z M243.717,14.144 Q243.717,14.272 243.717,14.4 Q243.717,14.528 243.701,14.656 L237.685,14.656 Q237.701,15.136 237.901,15.56 Q238.101,15.984 238.437,16.296 Q238.773,16.608 239.213,16.784 Q239.653,16.96 240.149,16.96 Q240.917,16.96 241.477,16.624 Q242.037,16.288 242.357,15.808 L243.413,16.656 Q242.805,17.456 241.981,17.832 Q241.157,18.208 240.149,18.208 Q239.285,18.208 238.549,17.92 Q237.813,17.632 237.285,17.112 Q236.757,16.592 236.453,15.856 Q236.149,15.12 236.149,14.224 Q236.149,13.344 236.445,12.6 Q236.741,11.856 237.269,11.328 Q237.797,10.8 238.517,10.504 Q239.237,10.208 240.069,10.208 Q240.901,10.208 241.581,10.48 Q242.261,10.752 242.733,11.264 Q243.205,11.776 243.461,12.504 Q243.717,13.232 243.717,14.144 z" fill="#FFFFFF"/>
    <path d="M102.445,37.376 L102.477,37.376 L105.821,28.672 L108.285,28.672 L108.285,40 L106.701,40 L106.701,30.528 L106.669,30.528 L102.909,40 L101.901,40 L98.157,30.528 L98.125,30.528 L98.125,40 L96.589,40 L96.589,28.672 L99.053,28.672 z" fill="#FFFFFF"/>
    <path d="M115.677,35.088 Q115.677,34.24 115.165,33.832 Q114.653,33.424 113.805,33.424 Q113.165,33.424 112.597,33.672 Q112.029,33.92 111.645,34.304 L110.845,33.344 Q111.405,32.816 112.213,32.512 Q113.021,32.208 113.949,32.208 Q114.765,32.208 115.365,32.44 Q115.965,32.672 116.349,33.072 Q116.733,33.472 116.925,34.016 Q117.117,34.56 117.117,35.184 L117.117,38.496 Q117.117,38.88 117.141,39.304 Q117.165,39.728 117.229,40 L115.869,40 Q115.741,39.456 115.741,38.912 L115.693,38.912 Q115.277,39.52 114.645,39.856 Q114.013,40.192 113.149,40.192 Q112.701,40.192 112.213,40.072 Q111.725,39.952 111.325,39.68 Q110.925,39.408 110.661,38.96 Q110.397,38.512 110.397,37.856 Q110.397,36.992 110.861,36.488 Q111.325,35.984 112.077,35.72 Q112.829,35.456 113.773,35.376 Q114.717,35.296 115.677,35.296 z M115.309,36.384 Q114.749,36.384 114.149,36.432 Q113.549,36.48 113.061,36.624 Q112.573,36.768 112.253,37.056 Q111.933,37.344 111.933,37.824 Q111.933,38.16 112.069,38.384 Q112.205,38.608 112.429,38.752 Q112.653,38.896 112.925,38.952 Q113.197,39.008 113.485,39.008 Q114.541,39.008 115.109,38.376 Q115.677,37.744 115.677,36.784 L115.677,36.384 z" fill="#FFFFFF"/>
    <path d="M124.941,34.336 Q124.701,33.968 124.221,33.72 Q123.741,33.472 123.197,33.472 Q122.605,33.472 122.149,33.696 Q121.693,33.92 121.373,34.296 Q121.053,34.672 120.885,35.168 Q120.717,35.664 120.717,36.208 Q120.717,36.752 120.885,37.248 Q121.053,37.744 121.373,38.12 Q121.693,38.496 122.157,38.72 Q122.621,38.944 123.213,38.944 Q123.789,38.944 124.261,38.72 Q124.733,38.496 125.037,38.112 L126.045,39.024 Q125.565,39.584 124.845,39.896 Q124.125,40.208 123.213,40.208 Q122.333,40.208 121.589,39.92 Q120.845,39.632 120.301,39.112 Q119.757,38.592 119.445,37.856 Q119.133,37.12 119.133,36.208 Q119.133,35.312 119.437,34.576 Q119.741,33.84 120.285,33.312 Q120.829,32.784 121.573,32.496 Q122.317,32.208 123.181,32.208 Q123.981,32.208 124.773,32.528 Q125.565,32.848 126.029,33.456 z" fill="#FFFFFF"/>
    <path d="M131.789,40 L130.029,40 L134.941,28.672 L136.381,28.672 L141.245,40 L139.453,40 L138.301,37.216 L132.925,37.216 z M133.485,35.824 L137.725,35.824 L135.613,30.512 z" fill="#FFFFFF"/>
    <path d="M144.125,43.84 L142.621,43.84 L142.621,32.416 L144.093,32.416 L144.093,33.6 L144.141,33.6 Q144.509,32.992 145.221,32.6 Q145.933,32.208 146.877,32.208 Q147.725,32.208 148.421,32.512 Q149.117,32.816 149.621,33.36 Q150.125,33.904 150.397,34.632 Q150.669,35.36 150.669,36.192 Q150.669,37.024 150.397,37.76 Q150.125,38.496 149.629,39.04 Q149.133,39.584 148.429,39.896 Q147.725,40.208 146.845,40.208 Q146.029,40.208 145.309,39.856 Q144.589,39.504 144.173,38.864 L144.125,38.864 z M149.117,36.192 Q149.117,35.664 148.957,35.168 Q148.797,34.672 148.477,34.288 Q148.157,33.904 147.685,33.68 Q147.213,33.456 146.589,33.456 Q146.013,33.456 145.541,33.68 Q145.069,33.904 144.733,34.288 Q144.397,34.672 144.213,35.168 Q144.029,35.664 144.029,36.208 Q144.029,36.752 144.213,37.248 Q144.397,37.744 144.733,38.12 Q145.069,38.496 145.541,38.72 Q146.013,38.944 146.589,38.944 Q147.213,38.944 147.685,38.712 Q148.157,38.48 148.477,38.096 Q148.797,37.712 148.957,37.216 Q149.117,36.72 149.117,36.192 z" fill="#FFFFFF"/>
    <path d="M154.269,43.84 L152.765,43.84 L152.765,32.416 L154.237,32.416 L154.237,33.6 L154.285,33.6 Q154.653,32.992 155.365,32.6 Q156.077,32.208 157.021,32.208 Q157.869,32.208 158.565,32.512 Q159.261,32.816 159.765,33.36 Q160.269,33.904 160.541,34.632 Q160.813,35.36 160.813,36.192 Q160.813,37.024 160.541,37.76 Q160.269,38.496 159.773,39.04 Q159.277,39.584 158.573,39.896 Q157.869,40.208 156.989,40.208 Q156.173,40.208 155.453,39.856 Q154.733,39.504 154.317,38.864 L154.269,38.864 z M159.261,36.192 Q159.261,35.664 159.101,35.168 Q158.941,34.672 158.621,34.288 Q158.301,33.904 157.829,33.68 Q157.357,33.456 156.733,33.456 Q156.157,33.456 155.685,33.68 Q155.213,33.904 154.877,34.288 Q154.541,34.672 154.357,35.168 Q154.173,35.664 154.173,36.208 Q154.173,36.752 154.357,37.248 Q154.541,37.744 154.877,38.12 Q155.213,38.496 155.685,38.72 Q156.157,38.944 156.733,38.944 Q157.357,38.944 157.829,38.712 Q158.301,38.48 158.621,38.096 Q158.941,37.712 159.101,37.216 Q159.261,36.72 159.261,36.192 z" fill="#FFFFFF"/>
    <path d="M172.621,30.768 Q172.285,30.304 171.709,30.008 Q171.133,29.712 170.413,29.712 Q170.029,29.712 169.637,29.816 Q169.245,29.92 168.925,30.152 Q168.605,30.384 168.405,30.728 Q168.205,31.072 168.205,31.552 Q168.205,32.016 168.389,32.328 Q168.573,32.64 168.885,32.856 Q169.197,33.072 169.621,33.224 Q170.045,33.376 170.525,33.536 Q171.101,33.712 171.693,33.936 Q172.285,34.16 172.765,34.528 Q173.245,34.896 173.549,35.448 Q173.853,36 173.853,36.848 Q173.853,37.728 173.525,38.376 Q173.197,39.024 172.653,39.448 Q172.109,39.872 171.397,40.08 Q170.685,40.288 169.933,40.288 Q168.861,40.288 167.861,39.872 Q166.861,39.456 166.205,38.64 L167.437,37.6 Q167.837,38.192 168.509,38.56 Q169.181,38.928 169.965,38.928 Q170.365,38.928 170.765,38.816 Q171.165,38.704 171.493,38.464 Q171.821,38.224 172.029,37.864 Q172.237,37.504 172.237,36.992 Q172.237,36.48 172.021,36.136 Q171.805,35.792 171.437,35.552 Q171.069,35.312 170.581,35.144 Q170.093,34.976 169.549,34.8 Q169.005,34.64 168.477,34.408 Q167.949,34.176 167.533,33.816 Q167.117,33.456 166.861,32.928 Q166.605,32.4 166.605,31.616 Q166.605,30.768 166.949,30.16 Q167.293,29.552 167.845,29.152 Q168.397,28.752 169.093,28.568 Q169.789,28.384 170.493,28.384 Q171.485,28.384 172.349,28.736 Q173.213,29.088 173.741,29.68 z" fill="#FFFFFF"/>
    <path d="M179.629,33.648 L177.613,33.648 L177.613,37.6 Q177.613,38.288 177.869,38.584 Q178.125,38.88 178.685,38.88 Q178.893,38.88 179.133,38.832 Q179.373,38.784 179.565,38.688 L179.613,39.92 Q179.341,40.016 179.013,40.072 Q178.685,40.128 178.333,40.128 Q177.261,40.128 176.693,39.536 Q176.125,38.944 176.125,37.76 L176.125,33.648 L174.669,33.648 L174.669,32.416 L176.125,32.416 L176.125,30.24 L177.613,30.24 L177.613,32.416 L179.629,32.416 z" fill="#FFFFFF"/>
    <path d="M188.861,36.192 Q188.861,37.072 188.549,37.808 Q188.237,38.544 187.685,39.08 Q187.133,39.616 186.381,39.912 Q185.629,40.208 184.765,40.208 Q183.901,40.208 183.149,39.912 Q182.397,39.616 181.853,39.08 Q181.309,38.544 180.997,37.808 Q180.685,37.072 180.685,36.192 Q180.685,35.312 180.997,34.584 Q181.309,33.856 181.853,33.328 Q182.397,32.8 183.149,32.504 Q183.901,32.208 184.765,32.208 Q185.629,32.208 186.381,32.504 Q187.133,32.8 187.685,33.328 Q188.237,33.856 188.549,34.584 Q188.861,35.312 188.861,36.192 z M187.293,36.192 Q187.293,35.648 187.125,35.152 Q186.957,34.656 186.637,34.28 Q186.317,33.904 185.845,33.68 Q185.373,33.456 184.765,33.456 Q184.157,33.456 183.685,33.68 Q183.213,33.904 182.893,34.28 Q182.573,34.656 182.405,35.152 Q182.237,35.648 182.237,36.192 Q182.237,36.736 182.405,37.232 Q182.573,37.728 182.893,38.112 Q183.213,38.496 183.685,38.72 Q184.157,38.944 184.765,38.944 Q185.373,38.944 185.845,38.72 Q186.317,38.496 186.637,38.112 Q186.957,37.728 187.125,37.232 Q187.293,36.736 187.293,36.192 z" fill="#FFFFFF"/>
    <path d="M190.941,34.048 Q190.941,33.744 190.925,33.264 Q190.909,32.784 190.877,32.416 L192.301,32.416 Q192.333,32.704 192.349,33.08 Q192.365,33.456 192.365,33.696 L192.413,33.696 Q192.733,33.024 193.349,32.616 Q193.965,32.208 194.733,32.208 Q195.085,32.208 195.325,32.272 L195.261,33.664 Q194.941,33.584 194.573,33.584 Q194.029,33.584 193.629,33.784 Q193.229,33.984 192.965,34.32 Q192.701,34.656 192.573,35.096 Q192.445,35.536 192.445,36.016 L192.445,40 L190.941,40 z" fill="#FFFFFF"/>
    <path d="M201.997,35.536 Q201.981,35.088 201.845,34.696 Q201.709,34.304 201.445,34.016 Q201.181,33.728 200.789,33.56 Q200.397,33.392 199.869,33.392 Q199.389,33.392 198.965,33.56 Q198.541,33.728 198.229,34.016 Q197.917,34.304 197.717,34.696 Q197.517,35.088 197.485,35.536 z M203.517,36.144 Q203.517,36.272 203.517,36.4 Q203.517,36.528 203.501,36.656 L197.485,36.656 Q197.501,37.136 197.701,37.56 Q197.901,37.984 198.237,38.296 Q198.573,38.608 199.013,38.784 Q199.453,38.96 199.949,38.96 Q200.717,38.96 201.277,38.624 Q201.837,38.288 202.157,37.808 L203.213,38.656 Q202.605,39.456 201.781,39.832 Q200.957,40.208 199.949,40.208 Q199.085,40.208 198.349,39.92 Q197.613,39.632 197.085,39.112 Q196.557,38.592 196.253,37.856 Q195.949,37.12 195.949,36.224 Q195.949,35.344 196.245,34.6 Q196.541,33.856 197.069,33.328 Q197.597,32.8 198.317,32.504 Q199.037,32.208 199.869,32.208 Q200.701,32.208 201.381,32.48 Q202.061,32.752 202.533,33.264 Q203.005,33.776 203.261,34.504 Q203.517,35.232 203.517,36.144 z" fill="#FFFFFF"/>
    <path d="M19.915,5.681 C29.593,5.681 37.44,13.659 37.44,23.5 C37.44,33.341 29.593,41.319 19.915,41.319 C10.236,41.319 2.39,33.341 2.39,23.5 C2.39,13.659 10.236,5.681 19.915,5.681 z" fill="url(#Gradient_1)"/>
    <path d="M19.915,3.251 C30.913,3.251 39.829,12.317 39.829,23.5 C39.829,34.683 30.913,43.749 19.915,43.749 C8.916,43.749 0,34.683 0,23.5 C0,12.317 8.916,3.251 19.915,3.251 z M19.915,5.681 C10.236,5.681 2.39,13.659 2.39,23.5 C2.39,33.341 10.236,41.319 19.915,41.319 C29.593,41.319 37.44,33.341 37.44,23.5 C37.44,13.659 29.593,5.681 19.915,5.681 z" fill="#EEEEEE" id="Circle"/>
    <path d="M28.61,27.285 C28.61,27.285 29.783,28.558 31.295,31.402 C31.736,32.231 30.754,32.896 30.754,32.896 C30.754,32.896 29.733,33.508 29.158,32.75 C28.114,31.371 27.193,28.127 27.193,28.127 C27.193,28.127 28.61,27.285 28.61,27.285 z M10.237,28.509 C10.237,28.509 12.519,30.116 12.519,30.116 C12.519,30.116 9.309,32.82 9.309,32.82 C9.309,32.82 10.237,28.509 10.237,28.509 z M15.88,18.716 C15.88,18.716 18.313,20.323 18.313,20.323 C18.313,20.323 12.82,29.555 12.82,29.555 C12.82,29.555 10.513,27.948 10.513,27.948 C10.513,27.948 15.88,18.716 15.88,18.716 z M27.042,24.021 C27.042,24.021 28.384,26.75 28.384,26.75 C28.384,26.75 26.879,27.693 26.879,27.693 C26.879,27.693 25.324,25.041 25.324,25.041 C25.324,25.041 27.042,24.021 27.042,24.021 z M8.807,21.929 C8.807,21.929 13.273,21.955 13.273,21.955 C13.273,21.955 10.648,26.431 10.648,26.431 L8.82,26.431 C8.82,26.431 8.807,21.929 8.807,21.929 z M22.828,21.917 C22.828,21.917 25.479,26.405 25.479,26.405 C25.479,26.405 15.399,26.418 15.399,26.418 C15.399,26.418 18.089,21.929 18.089,21.929 C18.089,21.929 22.828,21.917 22.828,21.917 z M31.67,21.929 C31.67,21.929 31.683,26.393 31.683,26.393 C31.683,26.393 28.796,26.405 28.796,26.405 C28.796,26.405 26.662,21.942 26.662,21.942 C26.662,21.942 31.67,21.929 31.67,21.929 z M19.002,10.942 C19.853,11.038 20.795,12.62 21.206,13.26 C23.424,16.766 26.865,23.652 26.865,23.652 C26.865,23.652 25.125,24.683 25.125,24.683 C25.125,24.683 22.895,21.501 19.733,14.308 C18.291,11.027 18.941,10.963 18.941,10.963 C18.964,10.949 18.945,10.959 19.002,10.942 z M17.486,16.115 C17.486,16.115 19.844,17.696 19.844,17.696 C19.844,17.696 18.464,19.991 18.464,19.991 C18.464,19.991 16.081,18.384 16.081,18.384 C16.081,18.384 17.486,16.115 17.486,16.115 z M18.592,15.059 C19.049,15.026 19.568,15.375 19.568,15.375 C19.568,15.375 20.16,15.807 20.23,16.228 C20.31,16.709 19.944,17.364 19.944,17.364 C19.944,17.364 17.636,15.834 17.636,15.834 C17.636,15.834 17.983,15.102 18.592,15.059 z" fill="#EEEEEE" id="App_Store_Glyph"/>
  </g>
  <defs>
    <linearGradient id="Gradient_1" gradientUnits="userSpaceOnUse" x1="19.915" y1="41.319" x2="19.915" y2="5.681">
      <stop offset="0" stop-color="#0058AF"/>
      <stop offset="1" stop-color="#007FFF"/>
    </linearGradient>
  </defs>
</svg>
