<?xml version="1.0" encoding="UTF-8"?>
<!DOCTYPE svg PUBLIC "-//W3C//DTD SVG 1.1//EN" "http://www.w3.org/Graphics/SVG/1.1/DTD/svg11.dtd">
<svg version="1.1" xmlns="http://www.w3.org/2000/svg" xmlns:xlink="http://www.w3.org/1999/xlink" x="0" y="0" width="54" height="38" viewBox="0, 0, 54, 38">
  <g id="Layer_1">
    <g>
      <g id="Letter">
        <path d="M48.729,37.402 C48.729,37.402 5.045,37.402 5.045,37.402 C2.811,37.402 1,35.591 1,33.357 C1,33.357 1,30.93 1,30.93 C1,30.93 1,4.638 1,4.638 C1,4.638 1,3.02 1,3.02 C1,3.02 26.855,20.211 26.855,20.211 C26.855,20.211 52.774,3.02 52.774,3.02 C52.774,3.02 52.774,4.638 52.774,4.638 C52.774,4.638 52.774,30.93 52.774,30.93 C52.774,30.93 52.774,33.357 52.774,33.357 C52.774,35.591 50.963,37.402 48.729,37.402 z" fill="#FFFFFF" id="MailBase"/>
        <g id="Shadow">
          <path d="M52.774,3.02 L52.774,33.357 C52.774,34.654 52.219,35.561 51.334,36.446 C43.18,31.031 35.026,25.616 26.871,20.201 C35.505,14.474 44.14,8.747 52.774,3.02 z" fill="#B5C0E7" fill-opacity="0.1"/>
          <path d="M52.774,3.02 L52.774,33.357 C52.774,34.654 52.219,35.561 51.334,36.446 C43.18,31.031 35.026,25.616 26.871,20.201 C35.505,14.474 44.14,8.747 52.774,3.02 z M51.774,4.884 C47.578,7.667 43.382,10.45 39.186,13.233 C35.684,15.555 32.182,17.878 28.68,20.201 C31.935,22.363 35.191,24.525 38.446,26.687 L38.446,26.687 C42.684,29.501 46.922,32.315 51.16,35.129 C51.802,33.802 51.667,34.413 51.774,33.357 L51.774,4.884 z" fill="#000000" fill-opacity="0.1"/>
        </g>
        <g id="Shadow" opacity="0.502">
          <path d="M1,3.02 C1,3.02 26.855,20.211 26.855,20.211 C35.488,14.485 44.122,8.76 52.755,3.033 C35.983,14.17 19.212,25.309 2.44,36.446 C1.503,35.642 1.061,34.571 1,33.357 L1,3.02 z" fill="#B5C0E7" fill-opacity="0.1"/>
          <path d="M1,3.02 C1,3.02 26.855,20.211 26.855,20.211 C35.488,14.485 44.122,8.76 52.755,3.033 C35.983,14.17 19.212,25.309 2.44,36.446 C1.503,35.642 1.061,34.571 1,33.357 L1,3.02 z M2,4.886 L1.999,33.306 C2.149,34.425 1.995,33.801 2.605,35.135 C10.092,30.164 17.578,25.193 25.064,20.221 C24.13,19.6 23.196,18.979 22.262,18.358 C18.222,15.672 18.222,15.672 13.374,12.448 C8.526,9.225 8.526,9.225 4.486,6.539 C3.657,5.988 2.829,5.437 2,4.886 z" fill="#000000" fill-opacity="0.1"/>
        </g>
        <path d="M52.774,32.655 C52.774,32.655 52.774,33.357 52.774,33.357 L52.753,33.772 L52.721,33.927 L52.588,34.569 L52.52,34.731 L52.276,35.3 L51.814,35.995 L49.832,36.251 L49.56,36.219 L49.56,33.868 C49.561,33.868 52.774,32.655 52.774,32.655 z M4.213,31.733 C4.213,31.733 4.213,35.737 4.213,35.737 C3.996,35.954 4.076,35.874 3.972,35.978 L1.958,35.964 L1.761,35.69 L1.55,35.376 L1.109,34.203 L1.051,33.918 L1,33.357 C1,33.357 1,32.946 1,32.946 L4.213,31.733 z M52.774,22.358 C52.774,22.358 52.774,26.362 52.774,26.362 C52.774,26.362 49.561,27.576 49.561,27.576 C49.561,27.576 49.561,23.572 49.561,23.572 C49.561,23.572 52.774,22.358 52.774,22.358 z M4.213,21.436 C4.213,21.436 4.213,25.441 4.213,25.441 C4.213,25.441 1,26.654 1,26.654 C1,26.654 1,22.65 1,22.65 L4.213,21.436 z M52.774,12.062 C52.774,12.062 52.774,16.066 52.774,16.066 C52.774,16.066 49.561,17.279 49.561,17.279 C49.561,17.279 49.561,13.275 49.561,13.275 C49.561,13.275 52.774,12.062 52.774,12.062 z M4.213,11.14 C4.213,11.14 4.213,15.144 4.213,15.144 C4.213,15.144 1,16.357 1,16.357 C1,16.357 1,12.353 1,12.353 L4.213,11.14 z M52.774,4.52 L52.774,5.769 C52.774,5.769 49.561,6.983 49.561,6.983 L49.56,3.825 L49.62,3.786 C50.021,3.52 51.836,4.392 52.174,4.168 C52.739,3.794 52.702,4.568 52.774,4.52 z M1,4.27 C1,4.27 4.213,3.827 4.213,3.827 L4.213,4.847 C4.213,4.848 1,6.061 1,6.061 L1,4.27 z" fill="#FA565A" id="SideRed"/>
        <path d="M52.774,27.506 L52.774,31.511 C52.774,31.511 49.561,32.724 49.561,32.724 C49.561,32.724 49.561,28.72 49.561,28.72 C49.561,28.72 52.774,27.506 52.774,27.506 z M4.213,26.585 C4.213,26.585 4.213,30.589 4.213,30.589 C4.213,30.589 1,31.802 1,31.802 L1,27.798 C1,27.798 4.213,26.585 4.213,26.585 z M52.774,17.21 C52.774,17.21 52.774,21.214 52.774,21.214 L49.56,22.428 C49.561,22.428 49.561,18.423 49.561,18.423 L52.774,17.21 z M4.213,16.288 C4.213,16.288 4.213,20.292 4.213,20.292 C4.213,20.292 1,21.506 1,21.506 C1,21.506 1,17.502 1,17.502 L4.213,16.288 z M52.774,6.913 C52.774,6.913 52.774,10.918 52.774,10.918 C52.774,10.918 49.561,12.131 49.561,12.131 C49.561,12.131 49.561,8.127 49.561,8.127 C49.561,8.127 52.774,6.913 52.774,6.913 z M4.213,5.992 C4.213,5.992 4.213,9.996 4.213,9.996 C4.213,9.996 1,11.209 1,11.209 C1,11.209 1,7.205 1,7.205 C1,7.205 4.213,5.992 4.213,5.992 z" fill="#539FDF" id="SideBlue"/>
        <g id="MailClose">
          <path d="M52.74,6.176 C52.74,6.176 33.95,24.465 26.87,24.494 C19.79,24.465 1,6.176 1,6.176 C1,4.638 1,4.545 1,4.545 C1,2.311 2.811,0.5 5.045,0.5 C5.045,0.5 48.729,0.5 48.729,0.5 C50.963,0.5 52.774,2.311 52.774,4.545 C52.774,6.226 52.74,6.176 52.74,6.176 z" fill="#FFFFFF"/>
          <path d="M52.74,6.176 C52.74,6.176 33.95,24.465 26.87,24.494 C19.79,24.465 1,6.176 1,6.176 C1,4.638 1,4.545 1,4.545 C1,2.311 2.811,0.5 5.045,0.5 C5.045,0.5 48.729,0.5 48.729,0.5 C50.963,0.5 52.774,2.311 52.774,4.545 C52.774,6.226 52.74,6.176 52.74,6.176 z" fill-opacity="0" stroke="#000000" stroke-width="0.75" stroke-opacity="0.2"/>
        </g>
      </g>
      <path d="M28.376,15.41 Q27.777,14.694 26.722,14.694 Q25.074,14.694 23.868,16.638 Q22.661,18.582 22.661,20.504 Q22.661,21.92 23.282,22.664 Q23.904,23.408 24.843,23.408 Q26.794,23.408 27.885,21.132 Q28.976,18.856 28.976,17.021 Q28.976,16.125 28.376,15.41 z M16.794,26.775 Q14.178,23.755 14.178,19.795 Q14.178,15.084 17.358,11.79 Q20.884,8.119 26.823,8.119 Q31.968,8.119 34.916,10.72 Q37.676,13.177 37.676,17.093 Q37.676,20.388 35.703,22.722 Q33.731,25.056 31.288,25.056 Q29.858,25.056 29.179,24.369 Q28.499,23.683 28.499,22.715 Q28.499,22.556 28.528,22.382 Q28.557,22.209 28.6,22.021 Q27.835,23.683 26.664,24.369 Q25.493,25.056 24.251,25.056 Q22.473,25.056 21.368,23.769 Q20.262,22.483 20.262,20.46 Q20.262,17.584 22.148,15.388 Q24.034,13.191 26.202,13.191 Q27.676,13.191 28.637,14.044 Q29.598,14.897 29.655,16.096 L30.378,13.668 L32.502,13.668 L30.58,19.998 Q30.363,20.735 30.262,21.183 Q30.161,21.631 30.161,21.978 Q30.161,22.628 30.559,22.924 Q30.956,23.22 31.462,23.22 Q33.109,23.22 34.417,21.501 Q35.725,19.781 35.725,17.006 Q35.725,13.654 33.384,11.739 Q31.043,9.824 27.083,9.824 Q21.592,9.824 18.687,13.032 Q16.201,15.764 16.201,19.897 Q16.201,23.509 18.571,25.966 Q21.346,28.871 26.476,28.871 Q28.875,28.871 30.942,28.112 Q33.008,27.353 34.728,26.067 L35.681,27.368 Q34.381,28.524 31.794,29.535 Q29.207,30.547 26.1,30.547 Q20.06,30.547 16.794,26.775 z" fill="#3C83FD" id="symbol" display="none"/>
    </g>
  </g>
</svg>
